<?xml version="1.0" encoding="iso-8859-1"?>
<!-- Generator: Adobe Illustrator 23.0.3, SVG Export Plug-In . SVG Version: 6.00 Build 0)  -->
<svg version="1.1" id="Laag_1" xmlns="http://www.w3.org/2000/svg" xmlns:xlink="http://www.w3.org/1999/xlink" x="0px" y="0px"
	 viewBox="0 0 500 63.5581055" style="enable-background:new 0 0 500 63.5581055;" xml:space="preserve">
<g>
	<path style="fill:#FFFFFF;" d="M21.5925388,0.8608322c0.9549866,0,4.3041611-0.143472,10.0430431-0.4304161
		C31.7790527,0.8608322,31.85079,1.2912482,31.85079,1.7216643c0,0.9101506-0.0963955,1.3629843-0.2869453,1.3629843
		c-0.4304161,0-1.2912483,0.2039993-2.5824966,0.609756c-1.2912483,0.4079986-1.9861908,0.7778873-2.0803432,1.111908
		c-0.3362637,1.2912483-0.5021534,3.3245163-0.5021534,6.0975609v26.757534c0,8.1308289-1.9010029,14.4772224-5.7030125,19.0459099
		c-3.8020077,4.5664444-8.9804516,6.8507881-15.5308456,6.8507881c-1.6275108,0-2.990495-0.4304161-4.0889525-1.2912483
		C0.3586801,61.1190834,0,59.8749084,0,58.5365868c0-1.1970978,0.4528336-2.2238159,1.3629842-3.0846481
		c0.9079089-0.8608322,1.9592898-1.2912483,3.1563845-1.2912483c1.1477761,0,2.3784971,0.728569,3.6944051,2.1879463
		c1.3136654,1.4571381,2.3067608,2.1879501,2.9770441,2.1879501c2.1027622,0,3.4904051-1.6745872,4.1606884-5.0215225
		c0.6680422-3.3491745,1.0043039-8.4401894,1.0043039-15.2797699v-27.761837c0-3.059989-0.192791-4.9251251-0.5738878-5.5954084
		c-0.2398672-0.3810978-0.9101505-0.7756457-2.0086079-1.1836443c-1.1006994-0.4057567-1.9144554-0.609756-2.4390249-0.609756
		c-0.19279,0-0.2869434-0.405757-0.2869434-1.2195123c0-0.8608321,0.0470762-1.3383249,0.1434717-1.4347202
		C17.7905312,0.7173601,21.2562771,0.8608322,21.5925388,0.8608322z"/>
	<path style="fill:#FFFFFF;" d="M67.7322464,45.5523682c1.0513763,0,2.1274185-0.2264175,3.2281189-0.6814919
		c1.0984573-0.4528351,1.6499252-1.0625916,1.6499252-1.8292694c0-0.0941544-0.5985413-1.6970062-1.793396-4.8063126
		l-2.1520844-5.2367287c-0.1927872-0.1905479-0.3586731-0.2869453-0.5021515-0.2869453
		c-0.9101486-0.0470772-3.2057037-0.0717354-6.8866539-0.0717354c-3.1563835,0-5.5729904,0.0246582-7.2453384,0.0717354
		c-0.192791,0-0.3586807,0.1210556-0.5021515,0.3586807l-2.3672867,5.4519386
		c-0.9572296,2.1520805-1.4347229,3.6114578-1.4347229,4.3758965c0,0.7666779,0.4304161,1.3629837,1.2912483,1.7933998
		s1.6140594,0.6814919,2.2596855,0.7532272c0.6456223,0.0717354,1.2060623,0.107605,1.6857948,0.107605
		c0.1434746,0.0493164,0.21521,0.4304161,0.21521,1.1477737c0,0.7173615-0.0493202,1.2195129-0.1434708,1.5064583
		c-0.6232071-0.0493202-1.8785896-0.1569214-3.7661438-0.3228111c-1.8897934-0.1658897-3.4321175-0.2510757-4.6269722-0.2510757
		c-1.197094,0-2.631813,0.085186-4.3041611,0.2510757c-1.6745872,0.1658897-2.9658356,0.2734909-3.873745,0.3228111
		c-0.1927872-0.192791-0.2869415-0.5492287-0.2869415-1.0760422c0-1.004303,0.0470772-1.5064545,0.1434708-1.5064545
		c0.5738869,0,1.5288734-0.2510757,2.869442-0.7532272c1.3383255-0.5021515,2.1744957-1.0155144,2.5107574-1.5423241
		c0.3810997-0.5738907,0.7756462-1.2777977,1.1836472-2.1162148c0.4057541-0.8361702,0.728569-1.517662,0.9684334-2.0444756
		l0.3586807-0.8608322L62.0651016,1.8651363C62.5896683,0.6232066,63.4751625,0,64.7193298,0
		c0.7173615,0,1.2912521,0.3116033,1.7216644,0.9325681l14.7058868,36.3701591
		c0.9079056,2.2013969,1.6970062,4.1606865,2.3672867,5.8823509c0.2869415,0.7666817,1.0760422,1.3517761,2.3672867,1.757534
		c1.2912521,0.4079971,2.2708969,0.6097565,2.9411774,0.6097565c0.1905518,0,0.2869415,0.4079971,0.2869415,1.2195129
		c0,0.813755-0.0493164,1.2912483-0.1434708,1.4347191c-0.1927872,0-1.6633759-0.0963974-4.4117661-0.2869453
		c-2.7506256-0.1905479-4.748024-0.2869415-5.9899521-0.2869415c-0.3362656,0-3.9454803,0.1927872-10.8321381,0.5738869
		c-0.1927948-0.192791-0.2869415-0.6814919-0.2869415-1.4705887S67.5394516,45.5523682,67.7322464,45.5523682z
		 M55.9675407,28.1205158c1.4347191,0.1434727,3.2034607,0.2152081,5.3084641,0.2152081
		c1.9122124,0,3.6092186-0.0470753,5.0932579-0.1434708l0.21521-0.3586807l-5.1649971-12.8407459l-5.5954094,12.8407459
		C55.8240662,28.0263634,55.8711433,28.1205158,55.9675407,28.1205158z"/>
	<path style="fill:#FFFFFF;" d="M104.3333054,1.0043042c0.3340225,0,3.9454803-0.1905488,10.8321381-0.5738881
		c0.1905441,0.1927905,0.2869415,0.6814921,0.2869415,1.4705882s-0.0963974,1.1836443-0.2869415,1.1836443
		c-0.8137589,0-1.8068542,0.2152078-2.9770432,0.6456239c-1.1724396,0.4304163-1.7575378,1.07604-1.7575378,1.9368722
		c0,0.4304161,0.5492325,2.0086083,1.6499329,4.7345772l9.6126251,23.6728821l10.1147766-23.6011467
		c0.9549866-2.1520796,1.4347229-3.777349,1.4347229-4.8780484c0-0.71736-0.4909515-1.3136659-1.4705963-1.7934003
		c-0.9818878-0.4774928-2.1879425-0.71736-3.6226654-0.71736c-0.1434784-0.0470769-0.21521-0.4304161-0.21521-1.1477762
		s0.047081-1.2195122,0.1434784-1.5064563c0.668045,0.0493185,1.901001,0.1569225,3.694397,0.3228121
		c1.7934113,0.1681313,3.2864075,0.251076,4.4835052,0.251076c1.1948547,0,2.6542358-0.0829448,4.3759003-0.251076
		c1.7216644-0.1658896,3.0353241-0.2734936,3.9454803-0.3228121c0.1905518,0.1927905,0.2869415,0.5514706,0.2869415,1.0760401
		c0,1.0043041-0.0493164,1.5064563-0.1434784,1.5064563c-0.5268097,0-1.3629761,0.2039993-2.5107574,0.609756
		c-1.1477814,0.4079988-2.0803375,0.8967001-2.797699,1.4705884c-0.3833466,0.3362622-1.2912445,2.0803442-2.7259674,5.2367287
		l-15.4949799,35.6527977c-0.3833389,0.813755-0.8742828,1.4593773-1.4705887,1.9368706
		c-0.5985489,0.4774933-1.1365662,0.7173615-1.6140594,0.7173615c-0.6702881,0-1.2195129-0.3116035-1.6499329-0.9325676
		l-14.7058792-36.3701591c-1.4347229-3.5868001-2.2238159-5.5460901-2.3672867-5.8823528
		C99.0965729,4.6875,98.3186874,4.1024032,97.0521011,3.6944046c-1.268837-0.4057567-2.2372665-0.609756-2.9053116-0.609756
		c-0.1927872,0-0.2869415-0.405757-0.2869415-1.2195123c0-0.8115135,0.0470734-1.2912482,0.1434708-1.4347202
		c0.2376251,0,1.7082138,0.0963953,4.4117661,0.2869441C101.116394,0.9101506,103.0891342,1.0043042,104.3333054,1.0043042z"/>
	<path style="fill:#FFFFFF;" d="M179.023941,45.5523682c1.0513763,0,2.1274261-0.2264175,3.2281189-0.6814919
		c1.098465-0.4528351,1.6499329-1.0625916,1.6499329-1.8292694c0-0.0941544-0.5985565-1.6970062-1.793396-4.8063126
		l-2.1520844-5.2367287c-0.1927948-0.1905479-0.3586884-0.2869453-0.5021515-0.2869453
		c-0.9101563-0.0470772-3.2057037-0.0717354-6.8866577-0.0717354c-3.1563873,0-5.572998,0.0246582-7.2453461,0.0717354
		c-0.1927795,0-0.3586731,0.1210556-0.5021515,0.3586807l-2.3672791,5.4519386
		c-0.9572296,2.1520805-1.4347229,3.6114578-1.4347229,4.3758965c0,0.7666779,0.4304199,1.3629837,1.2912445,1.7933998
		c0.8608398,0.4304161,1.6140594,0.6814919,2.2596893,0.7532272c0.6456146,0.0717354,1.2060547,0.107605,1.685791,0.107605
		c0.1434784,0.0493164,0.21521,0.4304161,0.21521,1.1477737c0,0.7173615-0.0493164,1.2195129-0.1434631,1.5064583
		c-0.6232147-0.0493202-1.8786011-0.1569214-3.7661438-0.3228111c-1.889801-0.1658897-3.4321289-0.2510757-4.6269836-0.2510757
		c-1.1970825,0-2.6318054,0.085186-4.3041534,0.2510757c-1.6745911,0.1658897-2.9658356,0.2734909-3.8737488,0.3228111
		c-0.1927795-0.192791-0.2869415-0.5492287-0.2869415-1.0760422c0-1.004303,0.0470734-1.5064545,0.1434784-1.5064545
		c0.5738831,0,1.5288696-0.2510757,2.8694305-0.7532272c1.3383331-0.5021515,2.1744995-1.0155144,2.5107574-1.5423241
		c0.3811035-0.5738907,0.77565-1.2777977,1.1836548-2.1162148c0.4057465-0.8361702,0.7285614-1.517662,0.9684296-2.0444756
		l0.3586884-0.8608322l15.853653-36.4418945C173.8813629,0.6232066,174.766861,0,176.0110321,0
		c0.7173615,0,1.2912445,0.3116033,1.7216644,0.9325681l14.7058868,36.3701591
		c0.9078979,2.2013969,1.696991,4.1606865,2.3672791,5.8823509c0.2869415,0.7666817,1.0760345,1.3517761,2.3672943,1.757534
		c1.2912445,0.4079971,2.2708893,0.6097565,2.9411774,0.6097565c0.1905365,0,0.2869415,0.4079971,0.2869415,1.2195129
		c0,0.813755-0.0493164,1.2912483-0.1434784,1.4347191c-0.1927795,0-1.6633759-0.0963974-4.4117584-0.2869453
		c-2.7506256-0.1905479-4.7480316-0.2869415-5.9899597-0.2869415c-0.3362579,0-3.9454803,0.1927872-10.8321381,0.5738869
		c-0.1927948-0.192791-0.2869415-0.6814919-0.2869415-1.4705887S178.8311462,45.5523682,179.023941,45.5523682z
		 M167.2592316,28.1205158c1.4347229,0.1434727,3.2034607,0.2152081,5.3084717,0.2152081
		c1.9122162,0,3.6092224-0.0470753,5.0932617-0.1434708l0.2151947-0.3586807l-5.1649933-12.8407459l-5.5953979,12.8407459
		C167.1157684,28.0263634,167.1628418,28.1205158,167.2592316,28.1205158z"/>
	<path style="fill:#FFFFFF;" d="M266.4992676,35.0071754c0,0.6702805-0.3721008,2.5354195-1.111908,5.5954056
		c-0.7420044,3.062233-1.3517456,4.6875-1.8292542,4.8780518c-5.3577881,1.9615288-10.7379761,2.9411736-16.1405945,2.9411736
		c-6.3127747,0-11.7176361-2.3314171-16.2123413-6.9942589c-4.4969635-4.6628418-6.7431946-10.1977234-6.7431946-16.6068878
		c0-6.7902622,2.2596893-12.6120872,6.7790527-17.4677181c4.5193787-4.8533897,10.15065-7.2812052,16.8938293-7.2812052
		c5.2120819,0,10.6886597,0.6949426,16.4275513,2.0803442c0.2376404,0.0493186,0.5380249,1.6499283,0.896698,4.8063126
		s0.5380249,5.093257,0.5380249,5.8106165c0,0.7173605-0.6456299,1.0760403-1.9368591,1.0760403
		c-0.0493469,0-0.4304199-0.0717354-1.1477966-0.2152081c-0.2398682-0.8608322-0.6343994-1.7687407-1.1836243-2.7259684
		c-0.5514832-0.9549856-1.3630066-1.9839487-2.4390259-3.0846481c-1.0760498-1.0984578-2.5600891-1.9951577-4.4476471-2.6901007
		c-1.8897858-0.6927009-4.006012-1.0401721-6.3486328-1.0401721c-8.5612488,0-12.840744,6.409164-12.840744,19.2252502
		c0,5.9787483,1.3136597,11.0114765,3.9454803,15.1004314c2.6295624,4.0889511,6.359848,6.1334267,11.1908112,6.1334267
		c3.5374908,0,6.5997009-1.2912483,9.1822205-3.8737411c0.6209717-0.6209679,1.1836243-1.4705887,1.685791-2.5466309
		c0.5021362-1.0760384,0.8832397-1.9839478,1.1477661-2.7259674c0.2622986-0.7397766,0.4169617-1.111908,0.4662781-1.111908
		C265.2304382,34.289814,266.306488,34.5296822,266.4992676,35.0071754z"/>
	<path style="fill:#FFFFFF;" d="M280.680603,41.5351524c-4.5193787-4.7345772-6.7790527-10.448801-6.7790527-17.1449089
		c0-6.6938667,2.2596741-12.4215384,6.7790527-17.1807747c4.5193481-4.7569942,9.9354248-7.1377335,16.2481995-7.1377335
		s11.7400513,2.3807387,16.2840881,7.1377335c4.5417786,4.7592359,6.8149109,10.486908,6.8149109,17.1807747
		c0,6.6961079-2.2731323,12.4103317-6.8149109,17.1449089c-4.5440369,4.7345734-9.9713135,7.1018639-16.2840881,7.1018639
		S285.1999512,46.2697258,280.680603,41.5351524z M295.8527527,4.0889525c-2.5354004,0-4.6404114,0.9213595-6.3127747,2.7618365
		c-1.6745605,1.8427191-2.8335571,4.1024036-3.479187,6.7790527c-0.6456299,2.6788912-0.9684448,5.7388811-0.9684448,9.18221
		c0,2.439024,0.2264404,4.8421803,0.6815186,7.2094688c0.4528198,2.3672886,1.1477661,4.6875019,2.0803223,6.958395
		c0.9325867,2.2731323,2.2821045,4.1136093,4.0531006,5.5236702c1.7687378,1.4123039,3.8244324,2.1162148,6.169281,2.1162148
		c3.5868225,0,6.2769165-1.8158188,8.0703125-5.4519386c1.793396-3.6338768,2.690094-8.1061687,2.690094-13.4146347
		c0-2.6295719-0.2039795-5.1291237-0.6097412-7.4964123c-0.40802-2.3672886-1.0648499-4.6628408-1.9727478-6.8866568
		c-0.9101563-2.2238169-2.2484741-3.992558-4.0172119-5.308465C300.4662781,4.7480273,298.3388672,4.0889525,295.8527527,4.0889525z
		"/>
	<path style="fill:#FFFFFF;" d="M338.2644348,0.6456241c3.1070557,0,7.1242981-0.0582855,12.0516663-0.17934
		c4.9251099-0.1188128,8.6307373-0.17934,11.1190796-0.17934c0.0470581,0.4797346,0.7397766,4.0172167,2.0803223,10.6169291
		c-0.2398682,0.2398672-0.789093,0.3586807-1.6499329,0.3586807c-0.5267944,0-0.8608093-0.1658897-1.004303-0.5021524
		c-0.9101257-1.8158178-2.3448486-3.3715925-4.3041382-4.6628408c-1.9615479-1.2912483-3.8737488-1.936872-5.7388916-1.936872
		h-2.7259521c-3.0129395,0-4.5686951,0.3116031-4.6628418,0.9325681c-0.2398682,1.1477761-0.3587036,3.0129128-0.3587036,5.5954084
		v11.0473461c0,0.2869434,1.0267334,0.4304161,3.0846558,0.4304161h3.802002c2.9635925,0,4.5911255-0.0941544,4.8780518-0.2869434
		c0.2376404-0.1905499,0.4304199-0.8832512,0.5738831-2.0803452c0.0941772-0.7173595,0.2376404-1.4100609,0.4304199-2.0803432
		c0.0470886-0.3340225,0.4057617-0.5021534,1.0760498-0.5021534c0.8115234,0,1.3383179,0.1210556,1.578186,0.3586807v13.5581055
		c-0.1927795,0.192791-0.6949463,0.2869453-1.5064392,0.2869453c-0.62323,0-1.004303-0.1905499-1.1477966-0.5738888
		c-0.1927795-0.6680412-0.3586731-1.24193-0.5021362-1.7216644c-0.1434937-0.4774933-0.2645264-0.8361721-0.3587036-1.0760403
		c-0.0963745-0.2376251-0.2039795-0.4528332-0.3227844-0.6456242c-0.1210632-0.1905479-0.20401-0.3093605-0.2510986-0.3586807
		c-0.0493164-0.0470753-0.1434631-0.1076031-0.2869263-0.1793385c-0.1434937-0.0717373-0.2398682-0.130022-0.2869568-0.1793404
		c-0.6231995-0.3810978-2.4883423-0.5738888-5.5953979-0.5738888c-3.4433289,0-5.1650085,0.2152081-5.1650085,0.6456242v11.0473461
		c0,2.4390259,0.1658936,4.4005547,0.5021667,5.8823509c0.1434631,0.5738907,0.9325562,1.028965,2.3672791,1.3629875
		c1.4347229,0.3362617,2.5107727,0.5021515,3.2281189,0.5021515c0.1905518,0,0.2869568,0.4550743,0.2869568,1.3629837
		c0,0.5738869-0.0493164,1.004303-0.1434937,1.2912483c-5.7388611-0.2869453-9.3973999-0.4304161-10.9755859-0.4304161
		l-10.4734802,0.4304161c-0.1927795-0.192791-0.2869263-0.5963058-0.2869263-1.2195129
		c0-0.9549866,0.0941467-1.4347191,0.2869263-1.4347191c0.5739136,0,1.4706116-0.1658897,2.6901245-0.5021515
		c1.2195129-0.3340225,1.901001-0.6927032,2.0444641-1.0760422c0.2869568-1.0984573,0.4304199-3.2034607,0.4304199-6.312767
		V10.5451937c0-2.6295733-0.1434631-4.4947095-0.4304199-5.5954089c-0.1434631-0.3810973-0.8496094-0.8115134-2.1162109-1.2912481
		c-1.2688293-0.4774928-2.1655273-0.7173603-2.690094-0.7173603c-0.1928101,0-0.2869568-0.4304161-0.2869568-1.2912482
		c0-0.7644368,0.0717468-1.2195121,0.21521-1.3629842C332.023407,0.5268114,335.5384827,0.6456241,338.2644348,0.6456241z"/>
	<path style="fill:#FFFFFF;" d="M381.6064453,0.6456241c3.1070557,0,7.1242676-0.0582855,12.0516357-0.17934
		c4.9251404-0.1188128,8.6307373-0.17934,11.1190796-0.17934c0.0470886,0.4797346,0.7397766,4.0172167,2.0803528,10.6169291
		c-0.2398682,0.2398672-0.789093,0.3586807-1.6499329,0.3586807c-0.5267944,0-0.8608398-0.1658897-1.004303-0.5021524
		c-0.9101563-1.8158178-2.3448792-3.3715925-4.3041687-4.6628408c-1.9615173-1.2912483-3.8737183-1.936872-5.7388611-1.936872
		h-2.7259827c-3.0129089,0-4.5686951,0.3116031-4.6628418,0.9325681c-0.2398682,1.1477761-0.3586731,3.0129128-0.3586731,5.5954084
		v11.0473461c0,0.2869434,1.0267334,0.4304161,3.0846558,0.4304161h3.802002c2.9635925,0,4.591095-0.0941544,4.8780518-0.2869434
		c0.2376099-0.1905499,0.4304199-0.8832512,0.5738831-2.0803452c0.0941467-0.7173595,0.2376404-1.4100609,0.4304199-2.0803432
		c0.0470886-0.3340225,0.4057617-0.5021534,1.0760498-0.5021534c0.8114929,0,1.3383179,0.1210556,1.578186,0.3586807v13.5581055
		c-0.1928101,0.192791-0.6949463,0.2869453-1.5064697,0.2869453c-0.6231995,0-1.004303-0.1905499-1.1477661-0.5738888
		c-0.1927795-0.6680412-0.3586731-1.24193-0.5021667-1.7216644c-0.1434631-0.4774933-0.2645264-0.8361721-0.3586731-1.0760403
		c-0.0963745-0.2376251-0.2039795-0.4528332-0.3228149-0.6456242c-0.1210327-0.1905479-0.2039795-0.3093605-0.2510681-0.3586807
		c-0.0493164-0.0470753-0.1434631-0.1076031-0.2869568-0.1793385c-0.1434631-0.0717373-0.2398682-0.130022-0.2869263-0.1793404
		c-0.6231995-0.3810978-2.4883423-0.5738888-5.5953979-0.5738888c-3.4433289,0-5.1650085,0.2152081-5.1650085,0.6456242v11.0473461
		c0,2.4390259,0.1658936,4.4005547,0.5021667,5.8823509c0.1434631,0.5738907,0.9325562,1.028965,2.3672791,1.3629875
		c1.4347229,0.3362617,2.5107422,0.5021515,3.2281189,0.5021515c0.1905518,0,0.2869263,0.4550743,0.2869263,1.3629837
		c0,0.5738869-0.0493164,1.004303-0.1434631,1.2912483c-5.7388611-0.2869453-9.3973999-0.4304161-10.9756165-0.4304161
		l-10.4734497,0.4304161c-0.1927795-0.192791-0.2869263-0.5963058-0.2869263-1.2195129
		c0-0.9549866,0.0941467-1.4347191,0.2869263-1.4347191c0.5738831,0,1.4705811-0.1658897,2.690094-0.5021515
		c1.2195129-0.3340225,1.901001-0.6927032,2.0444946-1.0760422c0.2869263-1.0984573,0.4304199-3.2034607,0.4304199-6.312767
		V10.5451937c0-2.6295733-0.1434937-4.4947095-0.4304199-5.5954089c-0.1434937-0.3810973-0.8496399-0.8115134-2.1162109-1.2912481
		c-1.2688293-0.4774928-2.1655273-0.7173603-2.690094-0.7173603c-0.1928101,0-0.2869568-0.4304161-0.2869568-1.2912482
		c0-0.7644368,0.0717468-1.2195121,0.21521-1.3629842C375.3654175,0.5268114,378.8804626,0.6456241,381.6064453,0.6456241z"/>
	<path style="fill:#FFFFFF;" d="M424.9506836,0.6456241c2.1027527,0,5.8106079-0.0582855,11.1190796-0.17934
		c5.3084717-0.1188128,9.3256836-0.17934,12.0516357-0.17934c0.0470886,0.4797346,0.7398071,4.0172167,2.0803528,10.6169291
		c-0.2398682,0.2398672-0.789093,0.3586807-1.6499329,0.3586807c-0.5267944,0-0.8608093-0.1658897-1.004303-0.5021524
		c-0.9101563-1.8158178-2.3448486-3.3715925-4.3041382-4.6628408c-1.9615479-1.2912483-3.8737488-1.936872-5.7388916-1.936872
		h-2.7259827c-3.0129089,0-4.5686646,0.3116031-4.6628418,0.9325681c-0.2398682,1.1477761-0.3586731,3.0129128-0.3586731,5.5954084
		v11.0473461c0,0.2869434,1.0267334,0.4304161,3.0846558,0.4304161h3.802002c2.9635925,0,4.591095-0.0941544,4.8780518-0.2869434
		c0.2376404-0.1905499,0.4304199-0.8832512,0.5738831-2.0803452c0.0941467-0.7173595,0.2376404-1.4100609,0.4304199-2.0803432
		c0.0470886-0.3340225,0.4057617-0.5021534,1.0760498-0.5021534c0.8114929,0,1.3383179,0.1210556,1.578186,0.3586807v13.5581055
		c-0.1927795,0.192791-0.6949463,0.2869453-1.5064697,0.2869453c-0.6231995,0-1.004303-0.1905499-1.1477661-0.5738888
		c-0.1927795-0.6680412-0.3586731-1.24193-0.5021362-1.7216644c-0.1434937-0.4774933-0.2645264-0.8361721-0.3587036-1.0760403
		c-0.0963745-0.2376251-0.2039795-0.4528332-0.3228149-0.6456242c-0.1210327-0.1905479-0.2039795-0.3093605-0.2510681-0.3586807
		c-0.0493164-0.0470753-0.1434631-0.1076031-0.2869263-0.1793385c-0.1434937-0.0717373-0.2398682-0.130022-0.2869568-0.1793404
		c-0.6231995-0.3810978-2.4883423-0.5738888-5.5953979-0.5738888c-3.4433289,0-5.1650085,0.2152081-5.1650085,0.6456242v11.0473461
		c0,2.2955513,0.1905518,3.9948006,0.5738831,5.0932579c0.2376404,0.7666779,1.8651428,1.1477737,4.8780518,1.1477737h1.8651428
		c2.9635925,0,5.6424866-0.6209641,8.0344238-1.8651352c0.8115234-0.4304161,1.7328796-1.2419281,2.7618408-2.4390259
		c1.0267334-1.1948509,1.8292847-2.5331764,2.4031677-4.0172157c0.0470581-0.2869415,0.3811035-0.4304161,1.004303-0.4304161
		c1.1477661,0,1.8651428,0.1434746,2.1520691,0.4304161c-2.3448486,6.5997124-3.6361084,10.7133255-3.8737488,12.3385963
		c-2.4390259,0-6.3127441-0.0493202-11.6212158-0.1434746s-9.6126404-0.1434708-12.9124756-0.1434708l-10.4734802,0.4304161
		c-0.1927795-0.192791-0.2869263-0.5963058-0.2869263-1.2195129c0-0.9549866,0.0941467-1.4347191,0.2869263-1.4347191
		c0.5738831,0,1.4706116-0.1658897,2.6901245-0.5021515c1.2195129-0.3340225,1.901001-0.6927032,2.0444641-1.0760422
		c0.2869568-1.0984573,0.4304199-3.2034607,0.4304199-6.312767V10.5451937c0-2.6295733-0.1434631-4.4947095-0.4304199-5.5954089
		c-0.1434631-0.3810973-0.8496399-0.8115134-2.1162109-1.2912481c-1.2688293-0.4774928-2.1655273-0.7173603-2.690094-0.7173603
		c-0.1928101,0-0.2869568-0.4304161-0.2869568-1.2912482c0-0.7644368,0.0717468-1.2195121,0.21521-1.3629842
		C418.2299194,0.5268114,421.7449646,0.6456241,424.9506836,0.6456241z"/>
	<path style="fill:#FFFFFF;" d="M471.520813,0.6456241c2.1027527,0,5.8106079-0.0582855,11.1190796-0.17934
		c5.3084717-0.1188128,9.3256836-0.17934,12.0516357-0.17934c0.0470886,0.4797346,0.7397766,4.0172167,2.0803528,10.6169291
		c-0.2398682,0.2398672-0.789093,0.3586807-1.6499329,0.3586807c-0.5267944,0-0.8608398-0.1658897-1.004303-0.5021524
		c-0.9101563-1.8158178-2.3448792-3.3715925-4.3041687-4.6628408c-1.9615173-1.2912483-3.8737488-1.936872-5.7388611-1.936872
		h-2.7259827c-3.0129089,0-4.5686951,0.3116031-4.6628418,0.9325681c-0.2398682,1.1477761-0.3586731,3.0129128-0.3586731,5.5954084
		v11.0473461c0,0.2869434,1.0267334,0.4304161,3.0846558,0.4304161h3.802002c2.9635925,0,4.591095-0.0941544,4.8780518-0.2869434
		c0.2376099-0.1905499,0.4304199-0.8832512,0.5738831-2.0803452c0.0941467-0.7173595,0.2376404-1.4100609,0.4304199-2.0803432
		c0.0470581-0.3340225,0.4057617-0.5021534,1.0760498-0.5021534c0.8114929,0,1.3383179,0.1210556,1.578186,0.3586807v13.5581055
		c-0.1928101,0.192791-0.6949463,0.2869453-1.5064697,0.2869453c-0.6231995,0-1.004303-0.1905499-1.1477661-0.5738888
		c-0.1927795-0.6680412-0.3586731-1.24193-0.5021667-1.7216644c-0.1434631-0.4774933-0.2645264-0.8361721-0.3586731-1.0760403
		c-0.096405-0.2376251-0.20401-0.4528332-0.3228149-0.6456242c-0.1210632-0.1905479-0.2039795-0.3093605-0.2510681-0.3586807
		c-0.0493164-0.0470753-0.1434631-0.1076031-0.2869568-0.1793385c-0.1434631-0.0717373-0.2398682-0.130022-0.2869263-0.1793404
		c-0.6231995-0.3810978-2.4883423-0.5738888-5.5954285-0.5738888c-3.4433289,0-5.164978,0.2152081-5.164978,0.6456242v11.0473461
		c0,2.2955513,0.1905518,3.9948006,0.5738831,5.0932579c0.2376404,0.7666779,1.8651428,1.1477737,4.8780518,1.1477737h1.8651428
		c2.9635925,0,5.6424866-0.6209641,8.0344238-1.8651352c0.8115234-0.4304161,1.7328796-1.2419281,2.7618408-2.4390259
		c1.0267334-1.1948509,1.8292542-2.5331764,2.4031677-4.0172157c0.0470581-0.2869415,0.381073-0.4304161,1.004303-0.4304161
		c1.1477661,0,1.8651123,0.1434746,2.1520691,0.4304161c-2.3448792,6.5997124-3.6361084,10.7133255-3.8737488,12.3385963
		c-2.4390259,0-6.3127747-0.0493202-11.6212158-0.1434746c-5.3084717-0.0941544-9.6126404-0.1434708-12.9125061-0.1434708
		l-10.4734497,0.4304161c-0.1927795-0.192791-0.2869568-0.5963058-0.2869568-1.2195129
		c0-0.9549866,0.0941772-1.4347191,0.2869568-1.4347191c0.5738831,0,1.4705811-0.1658897,2.690094-0.5021515
		c1.2195129-0.3340225,1.901001-0.6927032,2.0444946-1.0760422c0.2869263-1.0984573,0.4304199-3.2034607,0.4304199-6.312767
		V10.5451937c0-2.6295733-0.1434937-4.4947095-0.4304199-5.5954089c-0.1434937-0.3810973-0.8496399-0.8115134-2.1162109-1.2912481
		c-1.2688293-0.4774928-2.1655273-0.7173603-2.6901245-0.7173603c-0.1927795,0-0.2869263-0.4304161-0.2869263-1.2912482
		c0-0.7644368,0.0717163-1.2195121,0.21521-1.3629842C464.8000488,0.5268114,468.315094,0.6456241,471.520813,0.6456241z"/>
</g>
</svg>
