<svg xmlns="http://www.w3.org/2000/svg" width="340.5" height="340.5" viewBox="0 0 340.5 340.5">
  <path id="Topographic_pattern_dark_brown_trans" data-name="Topographic pattern dark brown trans" d="M158.286.966c-.425-.326-.848-.64-1.261-.966h.259c.364.29.718.556,1.084.832,2.44,1.869,4.961,3.8,7.307,5.9.307.3.613.615.907.928s.542.59.812.843c5.221,4.739,10.748,7.367,15.568,7.367h0c4.748,0,8.768-2.424,11.961-7.162A30.951,30.951,0,0,0,198.848,0h.165a30.469,30.469,0,0,1-3.971,8.791c-3.206,4.8-7.272,7.234-12.079,7.234h0c-4.856,0-10.43-2.629-15.662-7.416a9.267,9.267,0,0,1-.824-.843c-.295-.3-.59-.627-.908-.905C163.235,4.763,160.725,2.834,158.286.966ZM10.322,22.4c3.394-3.231,6.906-6.583,9.157-11.37A36.721,36.721,0,0,0,22.248,0h-.164a36.472,36.472,0,0,1-2.746,10.973c-2.227,4.739-5.727,8.079-9.12,11.31C6.269,26.045,2.191,29.915.176,36.041A4.433,4.433,0,0,0,0,36.6v.543c.094-.362.212-.712.317-1.037C2.333,30.012,6.4,26.141,10.322,22.4ZM181.808,8.574h0a7.68,7.68,0,0,0,4.761-1.748,11.353,11.353,0,0,0,2.793-3.3c.294-.483.612-.977.977-1.483A17.97,17.97,0,0,0,191.058,0h-.165c-.2.664-.424,1.315-.683,1.942a16.744,16.744,0,0,0-.979,1.5,11.2,11.2,0,0,1-2.745,3.255,7.551,7.551,0,0,1-4.678,1.725h0c-4.372,0-8.568-3.979-12.267-7.476L168.551,0h-.237c.366.351.731.688,1.108,1.049C173.146,4.582,177.377,8.574,181.808,8.574ZM2.864,50.63a63.269,63.269,0,0,1,2.651-10.9c1.909-4.75,5.88-8.742,10.076-12.974A83.237,83.237,0,0,0,23.1,18.533,45.923,45.923,0,0,0,29.377,7.911c.932-2.219,1.733-4.775,2.511-7.246.07-.217.153-.447.211-.664h-.164c-.059.2-.13.41-.2.616-.766,2.471-1.568,5.028-2.5,7.234a45.689,45.689,0,0,1-6.269,10.586,87.324,87.324,0,0,1-7.483,8.2c-4.219,4.256-8.2,8.259-10.123,13.033A62.663,62.663,0,0,0,2.71,50.606,71.711,71.711,0,0,1,.023,61.843.187.187,0,0,0,0,61.916v.422A4.671,4.671,0,0,1,.176,61.9,69.876,69.876,0,0,0,2.864,50.63Zm12.868,51.993c5.48,2.242,12.29,5.015,14.9,10.695.176,3.1-.885,5.739-2.015,8.524-1.592,3.907-3.394,8.332-2.381,15.253.778,5.256,3.8,8.633,7.295,12.54,1.449,1.615,2.923,3.279,4.337,5.172a69.245,69.245,0,0,1,8.166,15.41c1.968,4.81,3.512,8.608,8.674,9.875a87.113,87.113,0,0,0,10.358,1.6,41.859,41.859,0,0,0,4.525.277,20.6,20.6,0,0,0,5.88-.747c3.5-1.062,5.727-3.979,8.531-7.669.837-1.1,1.7-2.219,2.675-3.413.66-.82,1.531-1.713,2.463-2.677,1.933-1.989,3.924-4.051,4.478-5.7a4.805,4.805,0,0,0,.094-1.88,9.056,9.056,0,0,1-.035-1.725l.012-.036-.024-.025a44.631,44.631,0,0,0-6.352-6.535c-3.735-3.351-7.283-6.511-8.614-11.707a14.665,14.665,0,0,1,.777-8.959c1.308-3.472,4.349-7.295,8.59-10.743,1.909-1.556,3.936-3.171,6.081-4.9,9.841-7.849,21-16.747,27.093-24.5l.011-.048a7.626,7.626,0,0,0-.141-3.231c-.789-3.256-3.276-7.125-6.835-10.622-3.393-3.316-7.247-5.8-10.323-6.669-.247-.072-.73-.2-1.249-.314-4.1-.94-8.355-.289-12.456.338-3.548.542-6.917,1.061-10.182.627C73,69.886,67.925,65.051,66.133,57.575,63.776,47.76,70.293,41.6,76.6,35.631c4.643-4.413,9.463-8.959,10.724-14.963,1.2-5.655-.366-11.757-1.4-15.8C85.506,3.244,85,1.616,84.458,0h-.165c.554,1.629,1.049,3.268,1.473,4.92,1.026,4.015,2.592,10.092,1.4,15.71C85.919,26.588,81.122,31.122,76.48,35.51,70.152,41.5,63.6,47.7,65.98,57.612c1.8,7.535,6.952,12.419,14.07,13.372,3.276.433,6.645-.073,10.216-.615,4.09-.627,8.32-1.267,12.4-.338.507.109,1,.242,1.249.314,6.1,1.713,15.343,10.153,17.028,17.159a7.322,7.322,0,0,1,.165,3.158c-6.093,7.742-17.228,16.64-27.057,24.477-2.157,1.713-4.184,3.329-6.093,4.883-4.254,3.473-7.317,7.307-8.626,10.828a14.843,14.843,0,0,0-.789,9.043c1.355,5.245,4.9,8.44,8.661,11.8a45.011,45.011,0,0,1,6.317,6.475,10.251,10.251,0,0,0,.023,1.724,4.049,4.049,0,0,1-.082,1.809c-.542,1.616-2.51,3.678-4.443,5.655-.918.953-1.8,1.857-2.463,2.677-.977,1.182-1.85,2.315-2.686,3.425-2.794,3.665-5,6.559-8.449,7.608a26.271,26.271,0,0,1-10.335.47,91.463,91.463,0,0,1-10.346-1.6c-5.079-1.23-6.622-5-8.566-9.779A69.8,69.8,0,0,0,37.992,154.7c-1.414-1.893-2.9-3.556-4.337-5.172-3.487-3.883-6.492-7.246-7.258-12.456-1.014-6.872.777-11.274,2.357-15.168,1.131-2.809,2.216-5.462,2.038-8.61l-.011-.036c-2.64-5.728-9.487-8.537-14.99-10.768a28.764,28.764,0,0,0-4.725-1.615A63.778,63.778,0,0,0,0,99.4v.169a62.255,62.255,0,0,1,11.029,1.459A28.419,28.419,0,0,1,15.732,102.623ZM95.664,4.691c.425,1.664.92,3.329,1.4,4.956a70.1,70.1,0,0,1,2.4,10,20.365,20.365,0,0,1,.012,5.944c-.813,4.678-3.888,8.319-6.858,11.853-3.407,4.039-6.93,8.235-7.2,14.058.366,5.186,6.081,5.945,12.126,6.729,1.108.157,2.263.3,3.37.482a77.194,77.194,0,0,1,14.753,4.172c1.827.711,3.583,1.592,5.291,2.448,3.252,1.652,6.328,3.219,9.923,3.629a13.309,13.309,0,0,0,1.4.073,18.283,18.283,0,0,0,6.375-1.363c1.838-.663,3.417-1.374,4.949-2.085a31.742,31.742,0,0,1,11.172-3.316,23.023,23.023,0,0,1,2.581-.132c5.2,0,9.545,1.4,13.764,2.748,3.63,1.182,7.082,2.279,10.653,2.279a14.834,14.834,0,0,0,2.086-.132c5.421-.7,9.592-3.57,12.727-8.791,2.769-4.605,4.36-10.429,5.692-16.036a63.862,63.862,0,0,0,1.307-6.945c.237-2.1-.082-3.629-.989-4.691-1.638-1.941-4.926-2.062-8.732-2.182-1.733-.06-3.512-.121-5.291-.362-7.5-.989-13.776-1.978-20.729-4.956-5.727-2.436-11.454-5.486-15.26-7.6C146.207,11.889,138.972,7.464,133.869,0h-.188c5.126,7.537,12.4,12.022,18.843,15.615a167.027,167.027,0,0,0,15.261,7.608c6.964,2.966,13.269,3.967,20.776,4.967,1.779.23,3.571.29,5.3.362,3.771.121,7.035.23,8.638,2.122.86,1.025,1.179,2.52.944,4.57a67.306,67.306,0,0,1-1.308,6.922c-2.64,11.153-6.434,23.186-18.29,24.706a16.7,16.7,0,0,1-2.062.12c-3.546,0-6.976-1.1-10.618-2.267-4.219-1.35-8.578-2.748-13.8-2.748-.86,0-1.733.036-2.592.12a31.657,31.657,0,0,0-11.219,3.352c-1.533.688-3.111,1.411-4.938,2.074a18.417,18.417,0,0,1-6.328,1.338,12.892,12.892,0,0,1-1.379-.073c-3.559-.4-6.622-1.953-9.874-3.593a54.866,54.866,0,0,0-5.3-2.46,76.811,76.811,0,0,0-14.777-4.184c-1.12-.18-2.275-.337-3.382-.47-5.975-.8-11.632-1.543-12-6.594.27-5.74,3.783-9.912,7.164-13.951,2.994-3.532,6.07-7.211,6.906-11.914a21.724,21.724,0,0,0-.012-6A71.432,71.432,0,0,0,97.208,9.611c-.471-1.629-.955-3.316-1.4-4.968-.282-1.073-.577-2.171-.883-3.231C94.792.953,94.675.47,94.534,0h-.165c.141.5.282.977.4,1.459C95.076,2.52,95.37,3.605,95.664,4.691ZM10.982,10.72A18.7,18.7,0,0,0,14.046,0h-.153a18.661,18.661,0,0,1-3.04,10.636c-2.027,3.2-4.95,5.112-8.061,7.15C1.862,18.4.92,19.016,0,19.679v.193c.942-.675,1.921-1.314,2.876-1.941C5.986,15.881,8.932,13.951,10.982,10.72Zm95.005,3.737a26.756,26.756,0,0,1,2.285,6.788c.932,6.439-2.321,10.623-5.456,14.687-2.156,2.761-4.172,5.366-4.8,8.572a6.573,6.573,0,0,0-.082,1.942c.023.337.047.7.047,1.193v.025c.8,2.279,3.193,3.883,5.067,4.823,6.765,3.425,17.783,5.04,25.82,6.222a26.314,26.314,0,0,0,3.665.265h0a49.121,49.121,0,0,0,9.085-1.109,56.2,56.2,0,0,1,10.583-1.242c1.037,0,2.1.048,3.122.132.212.025.8.06,1.557.109,1.108.06,2.5.133,3.475.217a53.166,53.166,0,0,1,8.367,1.422,45.288,45.288,0,0,0,11.137,1.483c.483,0,.99-.011,1.5-.023,3.7-.591,7.094-4.582,8.449-9.936,1.119-4.425.86-10.31-3.217-13.564-4.8-3.823-18.773-7.175-26.28-7.79-1.6-.144-2.934-.157-4.219-.157-1.437-.012-2.911-.023-4.843-.193-5.174-.483-9.451-2.568-14.319-6.981-6.021-5.475-9.286-9.707-13.952-18.087A20.957,20.957,0,0,1,121.566,0h-.177a21.446,21.446,0,0,0,1.461,3.329c4.668,8.4,7.932,12.636,13.988,18.134,4.879,4.437,9.191,6.535,14.4,7.018,1.932.18,3.417.193,4.855.193,1.344.012,2.6.025,4.208.157,7.483.627,21.412,3.955,26.207,7.765,4.007,3.2,4.243,9.019,3.147,13.4-1.332,5.281-4.69,9.223-8.32,9.815-.495.012-.99.023-1.472.023a45.665,45.665,0,0,1-11.1-1.483,53.489,53.489,0,0,0-8.39-1.422c-.977-.073-2.369-.169-3.476-.23-.754-.036-1.343-.072-1.556-.084a30.093,30.093,0,0,0-3.134-.144A55.428,55.428,0,0,0,141.6,57.708a49,49,0,0,1-9.062,1.1h0a24.135,24.135,0,0,1-3.642-.253c-8.025-1.182-19.031-2.785-25.772-6.209-1.839-.916-4.2-2.5-4.973-4.726-.012-.483-.036-.845-.047-1.182a5.565,5.565,0,0,1,.07-1.905c.625-3.147,2.628-5.751,4.762-8.5,3.169-4.076,6.434-8.3,5.491-14.806a26.7,26.7,0,0,0-2.3-6.824c-.377-.857-.778-1.748-1.12-2.641A75.71,75.71,0,0,1,101.4,0h-.153a77.646,77.646,0,0,0,3.618,11.83C105.209,12.709,105.6,13.6,105.988,14.457ZM16.333,79.483C18.513,77,20.445,74.347,22.5,71.55c3.253-4.437,6.612-9.019,10.948-12.805.307-.29.612-.6.9-.917.259-.289.542-.578.824-.843a65.262,65.262,0,0,1,9.193-6.571c2.167-1.375,4.419-2.785,6.528-4.377,1.673-1.267,3.358-2.593,4.973-3.871,2.463-1.953,5.008-3.955,7.577-5.764,1.214-.856,2.475-1.677,3.818-2.545C73.8,29.578,81.228,24.731,82.36,15.965c.6-4.63-.59-10.6-3.123-15.965h-.165c2.534,5.354,3.724,11.322,3.135,15.952-1.132,8.693-8.521,13.517-15.049,17.761-1.331.868-2.592,1.7-3.806,2.545-2.581,1.82-5.126,3.834-7.578,5.775-1.625,1.279-3.3,2.605-5,3.871-2.1,1.579-4.337,3-6.505,4.365a67.15,67.15,0,0,0-9.2,6.6c-.307.265-.577.579-.848.857a10.515,10.515,0,0,1-.883.891c-4.349,3.8-7.719,8.392-10.959,12.83-2.051,2.809-4,5.45-6.164,7.922A29.928,29.928,0,0,1,0,88.937v.168A30.29,30.29,0,0,0,16.333,79.483ZM6.669,73.238c2.109-3.147,2.121-8.863,1.9-13.493-.176-3.737-.117-10.875,2.275-16.808,1.85-4.534,6.234-8.574,10.477-12.456.648-.6,1.284-1.194,1.909-1.784A66.655,66.655,0,0,0,39.654,5.414c.319-.7.589-1.447.86-2.171A27.752,27.752,0,0,1,41.634.531c.082-.18.176-.362.259-.531h-.177c-.07.157-.153.3-.235.447a29.077,29.077,0,0,0-1.108,2.737c-.272.724-.542,1.458-.872,2.158a66.257,66.257,0,0,1-16.38,23.247c-.625.59-1.273,1.169-1.909,1.761C16.958,34.257,12.55,38.3,10.7,42.877,8.3,48.833,8.237,56.008,8.413,59.746c.224,4.618.2,10.3-1.873,13.409A17.13,17.13,0,0,1,0,78.339v.18A17.345,17.345,0,0,0,6.669,73.238ZM2.345,4.425A6.492,6.492,0,0,0,3.806,0H3.63A6.466,6.466,0,0,1,2.238,4.318,3.1,3.1,0,0,1,0,5.414v.157H0A3.22,3.22,0,0,0,2.345,4.425Zm48.41-1.868c-2.238,2.7-3.877,6.391-5.455,9.959-.247.543-.484,1.073-.719,1.616-2.31,5.088-5.173,11.431-8.308,15.758-1.7,2.364-4.5,4.063-7.471,5.861-4.207,2.543-8.556,5.184-10.252,10.032a10.245,10.245,0,0,0-.024,6.065,3.1,3.1,0,0,0,3.029,2.014h0c2.334,0,5.091-1.846,6.222-2.834A42.582,42.582,0,0,0,33.9,43.781c1.026-1.387,2.074-2.845,3.159-4.171a20.128,20.128,0,0,1,3.865-3.653c3.606-2.171,8.225-3.835,13.116-5.6,6.8-2.435,13.811-4.955,18.183-9.055a13.06,13.06,0,0,0,3.83-9.236A15.267,15.267,0,0,0,72.237,1.424,12.95,12.95,0,0,0,70.753,0h-.259a14.141,14.141,0,0,1,1.625,1.543A15.008,15.008,0,0,1,75.89,12.058a12.889,12.889,0,0,1-3.759,9.128C67.771,25.249,60.759,27.769,54,30.2c-4.9,1.761-9.522,3.425-13.14,5.607a19.573,19.573,0,0,0-3.9,3.7c-1.108,1.315-2.156,2.774-3.182,4.184a43.031,43.031,0,0,1-6.093,7.2c-1.119.977-3.841,2.81-6.128,2.81a2.946,2.946,0,0,1-2.886-1.917,10.165,10.165,0,0,1,.035-5.956c1.674-4.787,6-7.4,10.181-9.936,2.982-1.809,5.8-3.521,7.531-5.92C39.535,25.647,42.4,19.292,44.721,14.2c.237-.542.472-1.085.719-1.627,1.58-3.557,3.217-7.223,5.445-9.911A14.613,14.613,0,0,1,53.771,0H53.5A15.108,15.108,0,0,0,50.754,2.557ZM113.07,43.781c-.388-4.22,3.877-6.8,8-7.414l.012-.012.011.012c2.428.638,4.656,1.422,5.256,3.81a4.2,4.2,0,0,1-.778,3.616,9.044,9.044,0,0,1-6.976,3.015h0a6.967,6.967,0,0,1-4.855-1.713l-.024-.048-.035-.085a3.351,3.351,0,0,0-.6-1.132l-.012-.025Zm.153-.048a4.023,4.023,0,0,1,.613,1.182l.023.061a6.781,6.781,0,0,0,4.738,1.677h0a8.878,8.878,0,0,0,6.847-2.955,4.027,4.027,0,0,0,.754-3.484c-.589-2.3-2.746-3.051-5.126-3.689C118.172,36.969,112.823,39.043,113.223,43.733Zm41.963,1.7-.035-.023v-.025c.071-3.907,4.891-5.667,9.357-5.667,3.524,0,6.717,1.037,8.319,2.725a4.206,4.206,0,0,1,1.25,3.1v.012c-1.108,3.365-5.363,3.858-7.8,3.858h0a21.016,21.016,0,0,1-10.43-2.713l-.023-.012-.059-.109A3.35,3.35,0,0,0,155.186,45.433Zm.13-.084a3.851,3.851,0,0,1,.6,1.157l.023.073a20.99,20.99,0,0,0,10.335,2.677h0c2.38,0,6.563-.483,7.648-3.737a4.16,4.16,0,0,0-1.2-2.967c-1.58-1.64-4.737-2.677-8.214-2.677C160.136,39.874,155.4,41.587,155.317,45.349ZM44.851,115.97a36.494,36.494,0,0,0-1.285-12.72,43.884,43.884,0,0,1-1.214-6.294,20.025,20.025,0,0,1,.012-5.04c.672-3.425,4.725-7.585,9.027-11.575,2.58-2.4,5.95-5.222,9.132-5.715a7.784,7.784,0,0,1,1.355-.109,37.984,37.984,0,0,1,8.214,1.459,42.689,42.689,0,0,0,5.786,1.205c.789.06,1.615.1,2.451.1A54.527,54.527,0,0,0,88.182,76.1,47.35,47.35,0,0,1,96.6,75.035a13.788,13.788,0,0,1,8,2.242c4.055,2.677,5.162,6.427,5.739,10.069v.036c-.907,7.7-6.4,12.817-11.254,17.314a91.054,91.054,0,0,1-9.828,7.645,97.155,97.155,0,0,0-9.169,6.993c-7.141,6.33-10.747,15.264-9.6,23.886a35.433,35.433,0,0,0,1.862,6.8,36.9,36.9,0,0,1,1.862,6.825c.507,3.967-.177,7.077-2.039,9.236a9.321,9.321,0,0,1-7.293,3.026h0a13.5,13.5,0,0,1-8.32-2.857,22.011,22.011,0,0,1-3.736-4.172c-4.231-5.872-7.753-13.854-10.735-24.428a44.617,44.617,0,0,1,1.449-14.072A48.323,48.323,0,0,0,44.851,115.97Zm.153.012a47.754,47.754,0,0,1-1.308,7.644,43.755,43.755,0,0,0-1.461,13.988c2.981,10.549,6.481,18.52,10.712,24.368a22.034,22.034,0,0,0,3.7,4.147,13.478,13.478,0,0,0,8.226,2.821h0a9.161,9.161,0,0,0,7.164-2.966c1.838-2.134,2.522-5.2,2-9.116a34.76,34.76,0,0,0-1.85-6.8,36.6,36.6,0,0,1-1.874-6.824c-1.143-8.681,2.475-17.665,9.663-24.018a98.071,98.071,0,0,1,9.191-7.029,92.945,92.945,0,0,0,9.817-7.609c4.832-4.5,10.287-9.573,11.195-17.205-.577-3.63-1.662-7.319-5.656-9.971a13.776,13.776,0,0,0-7.93-2.219A48.394,48.394,0,0,0,88.2,76.241a52.616,52.616,0,0,1-9.875,1.205q-1.272,0-2.475-.109a44.837,44.837,0,0,1-5.8-1.194,37.021,37.021,0,0,0-8.178-1.458,8.933,8.933,0,0,0-1.331.084c-3.135.506-6.482,3.3-9.05,5.68-4.278,3.978-8.32,8.114-8.98,11.5a20.185,20.185,0,0,0,0,4.992,44.033,44.033,0,0,0,1.2,6.27A36.5,36.5,0,0,1,45,115.982Zm8.155,1.736a104.6,104.6,0,0,1-.142-12.322c.472-6.294,2.146-10.985,5.279-14.783,4.408-5.305,8.827-5.787,16.157-6.535.542-.072,1.084-.12,1.662-.18,2.745-.3,5.468-.809,7.871-1.254,2.157-.41,4.219-.8,6.01-.977.813-.073,1.6-.121,2.357-.121,5.586,0,7.824,2.279,8.721,4.184,1.425,3.014.459,7.391-2.463,11.13A10.112,10.112,0,0,0,96.9,98.74a7.309,7.309,0,0,1-2.381,2.292,88.02,88.02,0,0,1-10.63,8.235c-5.432,3.786-11.053,7.692-16.038,13.588-.9,1.049-1.721,2.256-2.533,3.413-2.263,3.256-4.4,6.343-7.778,6.583h-.023l-.024-.012c-2.78-1.5-3.287-4.666-3.712-7.439-.129-.8-.235-1.52-.4-2.231C53.36,121.516,53.264,119.671,53.159,117.718Zm.164,0c.094,1.953.2,3.787.224,5.426.153.7.259,1.435.389,2.23.448,2.871.908,5.849,3.618,7.307,3.3-.241,5.41-3.292,7.648-6.511a41.383,41.383,0,0,1,2.534-3.413c5.008-5.92,10.617-9.827,16.061-13.625a85.355,85.355,0,0,0,10.63-8.235l.023-.012a6.747,6.747,0,0,0,2.322-2.255A10.86,10.86,0,0,1,98.5,96.738c2.874-3.666,3.818-7.97,2.439-10.936-.883-1.869-3.087-4.1-8.591-4.1a22.677,22.677,0,0,0-2.345.133c-1.792.168-3.842.567-6,.964-2.4.446-5.126.952-7.884,1.254-.578.059-1.12.12-1.662.168-7.542.8-11.691,1.219-16.051,6.512-3.1,3.762-4.773,8.416-5.232,14.674A101.861,101.861,0,0,0,53.323,117.718ZM155.151,102.6c-.578-4.1-1.308-14.119,4.773-18.243,1.449-.989,4.124-1.459,8.2-1.459,3.783,0,8.3.41,12.292.784,2.533.241,4.937.458,6.964.567,8.578.446,16.674.856,22.9,6.366,3.994,3.545,7.223,7.211,6.2,16.314-.46,4.136-2.31,9.1-4.266,14.384-.342.917-.683,1.846-1.037,2.785-.2.567-.4,1.11-.589,1.652-1.757,4.883-3.288,9.091-6.258,12.7a16.8,16.8,0,0,1-13.528,6.246h0c-9.085,0-18.572-5.534-24.441-10.731-8.732-7.742-9.864-18.57-11.066-30.024Zm.153-.023.153,1.35c1.19,11.418,2.31,22.222,11.007,29.9,5.833,5.184,15.308,10.72,24.334,10.72a16.6,16.6,0,0,0,13.4-6.2c2.969-3.593,4.489-7.788,6.245-12.648.189-.554.39-1.109.6-1.652.331-.941.684-1.868,1.026-2.8,1.944-5.27,3.8-10.237,4.254-14.337,1.014-9.031-2.179-12.672-6.151-16.181-6.175-5.475-14.248-5.9-22.8-6.33-2.026-.1-4.431-.326-6.964-.554-3.983-.374-8.509-.8-12.279-.8-4.042,0-6.693.47-8.12,1.447C154.009,88.563,154.716,98.5,155.3,102.575Zm8.3,1.326c-.106-3.618-.2-7.367,1.331-10.563,2.664-4.208,7.872-4.75,12.091-4.75,1.461,0,2.923.084,4.4.156,6.729.374,13.069.736,18.054,4.293,5.431,3.858,8.39,11.1,7.906,19.353-.424,7.138-3.076,17.194-9.179,22.029a12.732,12.732,0,0,1-8.108,2.556h0c-6.493,0-13.057-3.448-16.687-6.4-7.824-6.33-8.721-14.867-9.77-24.753C163.624,105.179,163.613,104.551,163.6,103.9Zm.141,0c.035.651.047,1.278.059,1.905,1.073,10.237,1.933,18.339,9.686,24.633,3.63,2.942,10.158,6.391,16.6,6.391h0a12.558,12.558,0,0,0,8-2.532c6.069-4.8,8.709-14.806,9.122-21.921.483-8.187-2.452-15.386-7.826-19.219-4.961-3.534-11.289-3.871-17.97-4.245-1.485-.1-2.935-.169-4.4-.169-4.184,0-9.333.543-11.949,4.667C163.566,96.569,163.66,100.3,163.742,103.9Zm-96.23.3A9.033,9.033,0,0,1,70,97.474c3.181-3.365,8.485-4.57,12.374-4.57a19.746,19.746,0,0,1,2.1.107H84.5l.012.037c.176.2.366.385.566.579a6.83,6.83,0,0,1,.73.831l.024.037-.012.036c-.342,2.037-2.062,3.666-3.536,4.86a31.345,31.345,0,0,1-13.257,6.185H69l-.012-.011a3.15,3.15,0,0,1-.8-.7,3.736,3.736,0,0,0-.637-.6l-.035-.025Zm.165-.048a5.118,5.118,0,0,1,.636.615,3.062,3.062,0,0,0,.719.651A31.146,31.146,0,0,0,82.2,99.258c1.437-1.157,3.123-2.748,3.464-4.726a4.351,4.351,0,0,0-.7-.784c-.177-.18-.366-.374-.542-.579a18.854,18.854,0,0,0-2.05-.107c-3.866,0-9.122,1.182-12.257,4.521A8.826,8.826,0,0,0,67.677,104.154ZM171.8,107.1c-.083-6.717,2.5-10.732,7.459-11.588a19.165,19.165,0,0,1,3.382-.3,15.827,15.827,0,0,1,9.911,3.292c7.094,5.486,9.333,18.69,4.384,25.671a10.305,10.305,0,0,1-8.7,4.582h0a15.214,15.214,0,0,1-8.249-2.677C173.04,121.457,171.873,112.2,171.8,107.1Zm.165,0c.07,5.076,1.225,14.276,8.107,18.845a15.1,15.1,0,0,0,8.167,2.641h0a10.13,10.13,0,0,0,8.556-4.5c2.286-3.232,3.146-8.164,2.3-13.227-.86-5.186-3.276-9.634-6.622-12.238a15.825,15.825,0,0,0-9.829-3.244,20.192,20.192,0,0,0-3.358.289C174.419,96.51,171.873,100.465,171.968,107.1ZM19.832,171.085a23.691,23.691,0,0,0,2.015,3.315l.036.037c1.024,1.362,2.768,3.629,5.2,3.255,2.616-.4,6.069-3.581,5.445-8.259-.495-3.737-2.946-6.475-7.719-8.61-.305-.132-.612-.277-.93-.41-2.3-.988-4.478-1.929-5.48-4.172-1.037-4.436-1.237-10.417-1.461-16.772a140.9,140.9,0,0,0-1.061-15.348c-1.331-8.959-5.809-14.288-13.694-16.326A18.96,18.96,0,0,0,0,107.337v.169a18.424,18.424,0,0,1,2.144.446c7.813,2,12.255,7.307,13.575,16.193a146.646,146.646,0,0,1,1.061,15.337c.212,6.355.425,12.347,1.461,16.82,1.037,2.315,3.241,3.256,5.574,4.257.319.144.625.264.932.41,4.713,2.1,7.129,4.8,7.612,8.489.613,4.57-2.745,7.68-5.3,8.066-2.334.362-4.042-1.857-5.056-3.172l-.035-.036a25.317,25.317,0,0,1-2-3.3c-2.039-3.773-4.149-7.68-10.182-6.655-2.851.47-6.056,2.025-9.78,4.714v.2c3.747-2.725,6.953-4.292,9.8-4.762C15.732,163.513,17.817,167.371,19.832,171.085ZM3.912,149.7c3.489-3.931,5.351-9.743,5.114-15.965-.235-5.993-2.427-11.467-5.868-14.662A9.161,9.161,0,0,0,0,117.55v.156a9.492,9.492,0,0,1,3.052,1.472c3.417,3.183,5.586,8.621,5.821,14.553C9.11,139.9,7.258,145.693,3.806,149.6A22.844,22.844,0,0,1,0,152.939v.193A21.219,21.219,0,0,0,3.912,149.7Zm136.8,12.046a14.045,14.045,0,0,1-8.791,2.688h0a27.412,27.412,0,0,1-18.183-7.487,32.232,32.232,0,0,1-4.478-6.259,127.084,127.084,0,0,1-8.132-16.253l-.011-.011v-.025a4.684,4.684,0,0,0-.165-1.41,4.82,4.82,0,0,1-.177-.905c.519-6.173,8.827-13.215,15.591-13.215a7.793,7.793,0,0,1,1.709.18c2.475.507,5.7,2.52,9.593,5.957,5.668,5.015,13.469,13.89,16.793,22.354a16.726,16.726,0,0,1,1.037,3.388C146.172,155.06,144.558,158.762,140.716,161.741Zm-.106-.133c3.8-2.93,5.4-6.583,4.75-10.839a17.236,17.236,0,0,0-1.049-3.352c-3.312-8.44-11.09-17.278-16.735-22.295-3.865-3.424-7.07-5.413-9.521-5.931a8.423,8.423,0,0,0-1.686-.157c-6.694,0-14.919,6.945-15.448,13.046a7.839,7.839,0,0,0,.176.868,4.4,4.4,0,0,1,.188,1.447,128.22,128.22,0,0,0,8.108,16.218,32.334,32.334,0,0,0,4.466,6.209,27.21,27.21,0,0,0,18.066,7.44h0A13.86,13.86,0,0,0,140.609,161.608Zm-3.276-13.432a10.683,10.683,0,0,1-.058,3.618c-.9,3.532-3.9,5.571-8.238,5.571h0a16.88,16.88,0,0,1-10.287-3.653c-4.172-3.473-5.562-8.4-6.941-14.469a8.631,8.631,0,0,1,1.921-6.343,6.13,6.13,0,0,1,4.678-1.857,9.331,9.331,0,0,1,1.7.157c3.146.506,7.2,2.81,10.606,5.993C134.4,140.651,136.816,144.655,137.333,148.176Zm-.141.025c-1.12-7.416-10.582-15.772-17.11-16.845a10.486,10.486,0,0,0-1.674-.144,5.992,5.992,0,0,0-4.561,1.784,8.543,8.543,0,0,0-1.885,6.222c1.379,6.029,2.757,10.925,6.882,14.373a16.817,16.817,0,0,0,10.193,3.605h0c4.267,0,7.2-1.978,8.073-5.45A10.264,10.264,0,0,0,137.192,148.2Zm35.966,30.433c.742,8.959-.8,12.612-2.6,16.82-.59,1.363-1.2,2.8-1.78,4.5a45.754,45.754,0,0,0-1.768,8.6c-.448,3.244-.86,6.282-2.109,8.813l-.2.314A19.713,19.713,0,0,1,160.5,222.8a13.689,13.689,0,0,1-8.461,2.616h0c-5.1,0-10.2-2.206-12.987-5.594a9.991,9.991,0,0,1-2.216-8.284c.885-4.268,4.49-6.849,7.979-9.358,3.3-2.363,6.7-4.81,7.99-8.693.824-2.52.411-5.377-.024-8.428-.472-3.292-.967-6.692.212-9.766,1.662-4.365,6.682-8.79,11.666-10.273a9.587,9.587,0,0,1,2.733-.422,9.223,9.223,0,0,1,1.25.084l.035.012.023.012C171.85,167.263,172.733,173.5,173.158,178.633Zm-.141.012c-.425-5.088-1.308-11.262-4.408-13.794a8.512,8.512,0,0,0-1.214-.084,9.386,9.386,0,0,0-2.7.41c-4.938,1.471-9.911,5.848-11.548,10.176-1.167,3.026-.684,6.414-.2,9.695.436,3.05.848,5.931,0,8.5-1.3,3.919-4.713,6.391-8.049,8.779-3.606,2.592-7.035,5.04-7.908,9.235a9.887,9.887,0,0,0,2.181,8.163c2.757,3.352,7.824,5.523,12.868,5.523a13.455,13.455,0,0,0,8.366-2.568,19.539,19.539,0,0,0,4.173-5.1l.176-.289c1.226-2.508,1.65-5.535,2.1-8.754a48.04,48.04,0,0,1,1.768-8.633c.578-1.713,1.19-3.135,1.78-4.521C172.2,191.185,173.735,187.568,173.017,178.645ZM24.794,208.392a5.448,5.448,0,0,1-4.537,2.315h0a6.636,6.636,0,0,1-6.446-5.257c-.307-2.026.707-4.847,2.522-7.018,1.484-1.759,3.229-2.773,4.808-2.773a3.786,3.786,0,0,1,2.557,1.014C26.35,199.01,26.951,205.353,24.794,208.392Zm-1.191-11.6a3.643,3.643,0,0,0-2.463-.964,6.561,6.561,0,0,0-4.679,2.7c-1.8,2.147-2.792,4.92-2.5,6.886a6.474,6.474,0,0,0,6.293,5.124h0a5.271,5.271,0,0,0,4.419-2.255C26.785,205.317,26.209,199.083,23.6,196.792Zm57.838,21.994v.023a4.555,4.555,0,0,1-4.3,3.846h0a2.9,2.9,0,0,1-2.7-1.759l-.012-.025a4.047,4.047,0,0,1,1.073-3.014,4.336,4.336,0,0,1,3.147-1.483,3.525,3.525,0,0,1,2.073.7l.012.025.012.023a3.389,3.389,0,0,0,.319.772A3.019,3.019,0,0,1,81.441,218.785Zm-.165.011a3.1,3.1,0,0,0-.341-.831,3.5,3.5,0,0,1-.341-.772,3.3,3.3,0,0,0-1.944-.663,4.217,4.217,0,0,0-3.029,1.422,3.785,3.785,0,0,0-1.026,2.882,2.739,2.739,0,0,0,2.546,1.652h0A4.38,4.38,0,0,0,81.276,218.8ZM293.852,2.979a14.612,14.612,0,0,0,12,.53A11.86,11.86,0,0,0,310.491,0H310.3a11.284,11.284,0,0,1-4.5,3.352,14.423,14.423,0,0,1-11.879-.506A11.2,11.2,0,0,1,290.434,0h-.211A11.214,11.214,0,0,0,293.852,2.979ZM158.863,9.6c1.485,1.073,2.9,2.219,4.266,3.315,3.311,2.653,6.434,5.138,9.876,6.319a24.38,24.38,0,0,0,11.053,2.953,17.9,17.9,0,0,0,8.331-2.037C200.144,16.157,204.515,7.44,206.189,0h-.165c-1.674,7.38-6,16.05-13.7,20-5.763,2.966-12.244,2.652-19.255-.917-3.429-1.169-6.54-3.665-9.841-6.318-1.366-1.085-2.78-2.219-4.277-3.3-1.6-1.169-3.265-2.3-4.879-3.388A97.071,97.071,0,0,1,145.76,0H145.5a92.957,92.957,0,0,0,8.484,6.211C155.6,7.307,157.261,8.429,158.863,9.6Zm55.693,3.026c1.049,2.6,3.358,3.871,7.058,3.871A32.916,32.916,0,0,0,227,15.9h.047a6.3,6.3,0,0,1,1.1-.084,15.864,15.864,0,0,1,4.431.88c.742.228,1.533.458,2.287.615.613.144,1.214.253,1.815.385a31.934,31.934,0,0,1,7.4,2.11c.92.435,1.862.857,2.781,1.254,4.549,2.014,9.251,4.1,12.3,8.151.189.253.354.506.531.759,2.132,3.231,3.983,6.7,5.75,10.068a104.522,104.522,0,0,0,6.577,11.262c2.416,3.484,5.668,7.332,8.814,11.057,1.1,1.3,2.121,2.532,3.123,3.739,5,6.052,9.711,11.756,18.407,11.756h.012a27.381,27.381,0,0,0,7.235-1.085c7.53-2.073,20.823-7.259,25.371-18.5a68.49,68.49,0,0,0,2.853-11.527c.648-3.316,1.319-6.753,2.168-9.61V36.6a95.737,95.737,0,0,0-2.31,10.116,69.888,69.888,0,0,1-2.853,11.5c-4.525,11.189-17.77,16.326-25.265,18.4a26.719,26.719,0,0,1-7.2,1.085h-.012c-8.613,0-13.316-5.678-18.277-11.707-1-1.206-2.039-2.436-3.135-3.726-3.135-3.725-6.387-7.583-8.815-11.044a109.688,109.688,0,0,1-6.551-11.249c-1.78-3.365-3.63-6.849-5.763-10.081-.164-.253-.353-.53-.542-.772-3.076-4.074-7.789-6.173-12.349-8.2-.932-.41-1.874-.832-2.781-1.254a32.388,32.388,0,0,0-7.436-2.134c-.613-.121-1.214-.242-1.815-.374-.742-.169-1.52-.4-2.275-.615a16.043,16.043,0,0,0-4.478-.893,8.135,8.135,0,0,0-1.119.085l-.071.011a32.228,32.228,0,0,1-5.338.579c-3.618,0-5.892-1.23-6.906-3.75-1.06-2.593-.706-6.993-.389-10.888.047-.591.094-1.146.13-1.689h-.165c-.035.543-.071,1.1-.118,1.677C213.849,5.583,213.507,10.008,214.557,12.625Zm65.178-7.681c4.678,6.487,12.987,10.345,22.213,10.345a30.327,30.327,0,0,0,6.624-.711c8.2-1.857,10.829-7.583,12-14.578h-.153a27.236,27.236,0,0,1-1.662,6.162c-1.9,4.486-5.149,7.113-10.205,8.259a30.178,30.178,0,0,1-6.6.711c-9.179,0-17.428-3.846-22.083-10.285A40.316,40.316,0,0,1,278.486,0h-.165a42.7,42.7,0,0,0,1.4,4.933ZM235,8.333a75.17,75.17,0,0,1,11.985,3.11c2.474.8,5.043,1.616,7.647,2.255,1.662.41,3.323.736,4.8.964a26.959,26.959,0,0,0,3.948.351h0q3.428,0,4.065-1.447C268.61,11,269.506,5.414,269.554,0H269.4c-.047,5.391-.944,10.937-2.086,13.505-.4.893-1.732,1.338-3.935,1.338a26.738,26.738,0,0,1-3.924-.337c-1.473-.23-3.123-.556-4.785-.966-2.6-.638-5.15-1.458-7.625-2.255a75.745,75.745,0,0,0-12.031-3.123c-4.125-.6-7.413-3.5-9.345-8.164h-.177C227.448,4.763,230.8,7.706,235,8.333Zm91.905-4.161c-.212,5.933-.4,11.069-4.254,14.1-4.008,3.172-11.006,4.076-16.122,4.728-.507.072-1.014.144-1.484.2a20.352,20.352,0,0,1-2.746.18h0c-5.208,0-10.759-1.8-16.133-3.521-4.808-1.531-9.768-3.135-14.412-3.411h-.012l-.012.012c-2.651.772-3.311,3.665-3.052,6.113.754,9.561,4.042,17.387,11.384,27.02,1.472,1.93,2.864,3.9,4.195,5.8,2.287,3.206,4.431,6.257,6.941,9.127a17.889,17.889,0,0,0,14.023,6.5h0c6.434,0,13.669-3.062,19.856-8.428,6.376-7.066,7.331-16.423,7.766-25.405.035-.7.047-1.424.07-2.206.1-3.605.2-8.1,1.933-10.322A24.484,24.484,0,0,1,340,19.871v-.193a24.368,24.368,0,0,0-5.279,4.9c-1.756,2.242-1.862,6.764-1.968,10.394-.024.784-.036,1.519-.071,2.206-.424,8.947-1.378,18.291-7.718,25.309-6.152,5.329-13.34,8.392-19.739,8.392a17.8,17.8,0,0,1-13.905-6.451,112.223,112.223,0,0,1-6.929-9.139c-1.332-1.893-2.722-3.846-4.2-5.788-7.317-9.61-10.606-17.423-11.348-26.948-.259-2.363.364-5.184,2.923-5.933,4.607.278,9.557,1.857,14.353,3.4,5.385,1.725,10.947,3.521,16.179,3.521h0a22.863,22.863,0,0,0,2.769-.181c.472-.072.979-.132,1.486-.193,5.126-.663,12.161-1.579,16.18-4.762,3.924-3.087,4.113-8.235,4.337-14.229.047-1.241.082-2.531.164-3.821A3.431,3.431,0,0,0,327.273,0h-.165c0,.121-.012.217-.012.338C327,1.641,326.954,2.919,326.907,4.172Zm2.451,79.882-.023.011c-1.085.88-2.722,2.219-2.546,4.063l.012.037.024.023a6.855,6.855,0,0,1,.93.916l.012.025h.023a30.132,30.132,0,0,0,6.058.627h0A30.013,30.013,0,0,0,340,89.105v-.168a29.485,29.485,0,0,1-12.15.036,7.994,7.994,0,0,0-.9-.893c-.153-1.736,1.367-2.978,2.475-3.894l.023-.023a34.488,34.488,0,0,1,7.106-3.979c1.155-.531,2.31-1.085,3.441-1.664v-.18c-1.155.59-2.346,1.157-3.513,1.688A33.725,33.725,0,0,0,329.358,84.054Zm6.859-82.691c.176,2.231,1.944,4.208,3.783,4.208V5.4c-1.768,0-3.454-1.893-3.618-4.051A7.241,7.241,0,0,1,336.37,0h-.153A7.565,7.565,0,0,0,336.217,1.363ZM322.394,34.521c2.226,3.063,3.146,7.512,2.533,12.2a19.952,19.952,0,0,1-5.02,11.226,17.249,17.249,0,0,1-11.926,4.98h0a12.99,12.99,0,0,1-7.223-2.085c-4.348-2.918-6.14-8.524-7.86-13.951a62.033,62.033,0,0,0-2.533-6.945v-.012c-.319-2.11.9-3.376,3.688-3.894a83.759,83.759,0,0,0,9.251-2.411c2.734-.82,5.3-1.592,7.707-2.074a16.582,16.582,0,0,1,3.229-.337C317.775,31.218,320.909,32.484,322.394,34.521Zm-.13.109c-1.461-2-4.536-3.244-8.025-3.244a16.491,16.491,0,0,0-3.205.326c-2.381.483-4.962,1.254-7.672,2.074a88.812,88.812,0,0,1-9.286,2.424c-2.734.482-3.853,1.663-3.559,3.689a59.762,59.762,0,0,1,2.51,6.945c1.732,5.4,3.5,10.973,7.812,13.854a12.711,12.711,0,0,0,7.141,2.073,17.085,17.085,0,0,0,11.809-4.944C324.869,52.752,327.108,41.261,322.264,34.629ZM130.369,95.557c-.872-2.905-.141-5.028,2.51-7.355,1.426-1.23,3.088-2.411,4.419-3.376.6-.422,1.132-.8,1.555-1.11,1.874-1.435,3.595-2.942,5.267-4.4,3.276-2.869,6.364-5.571,9.829-6.874a15.222,15.222,0,0,1,5.515-.952c3.63,0,7.33,1.061,10.924,2.085,2.05.591,4.16,1.194,6.21,1.58a42.706,42.706,0,0,0,8.061.759,44.628,44.628,0,0,0,6.564-.5c7.295-1.084,14.788-3.918,23.533-8.947,1.85-1.061,3.653-2.278,5.4-3.46,1.8-1.23,3.677-2.5,5.61-3.582a14.224,14.224,0,0,1,2.451-1.037c.636-.228,1.3-.458,1.932-.747.578-.289,1.144-.6,1.674-.905a12.924,12.924,0,0,1,3.924-1.663,20.579,20.579,0,0,1,3.842-.349,14.76,14.76,0,0,1,4.748.675,50.528,50.528,0,0,1,12.551,7.234c.871.651,1.72,1.338,2.557,2,1.025.82,2.085,1.664,3.182,2.436a19.975,19.975,0,0,0,3.017,1.675,21.878,21.878,0,0,1,2.745,1.471,40.782,40.782,0,0,1,12.621,13.854c3.311,5.7,5.361,10.213,1.32,16.241-1.25,1.882-2.746,2.448-4.9,3.087a28.561,28.561,0,0,1-7,.893,24.608,24.608,0,0,0-8,1.267,15.571,15.571,0,0,0-3.582,2.134c-.284.217-.578.446-.86.663a23.468,23.468,0,0,1-3.642,2.424c-1.909.977-3.841,2.026-5.7,3.051-1.2.638-2.416,1.314-3.642,1.966-2.839,1.494-5.715,3.062-8.5,4.557-1.6.868-3.193,1.736-4.785,2.593-.07.072-.129.144-.188.216l-.024.037c-7.694,4.328-10.664,11.249-12.715,18.073-.141.506-.294,1.014-.448,1.508-1.414,4.823-2.733,9.369-7.577,11.912-2.345,1.231-6.587,2.424-12.574,3.534-8.425,1.567-16.333,2.05-25.477,2.6l-.684.048-.023-.012c-2.393-1.567-3.83-3.846-5.351-6.257a34.459,34.459,0,0,0-2.333-3.436,82,82,0,0,0-6.376-6.945,97.805,97.805,0,0,1-7.129-7.838c-5.515-7.077-9.3-15.9-12.962-24.428-.6-1.4-1.214-2.834-1.827-4.2-.683-1.592-1.508-3.2-2.31-4.751A46.278,46.278,0,0,1,130.369,95.557Zm.153-.061a48.056,48.056,0,0,0,3.323,7.451c.8,1.556,1.625,3.172,2.333,4.763.6,1.362,1.214,2.8,1.815,4.2,3.654,8.5,7.448,17.315,12.952,24.38a95.058,95.058,0,0,0,7.117,7.838,86.676,86.676,0,0,1,6.387,6.958,38.2,38.2,0,0,1,2.334,3.449c1.508,2.4,2.934,4.641,5.29,6.185l.625-.036c9.144-.554,17.052-1.037,25.467-2.6,5.974-1.1,10.181-2.292,12.526-3.534,4.772-2.5,6.1-7.017,7.507-11.8.141-.494.294-1,.448-1.508,2.062-6.849,5.032-13.794,12.762-18.171a2.114,2.114,0,0,1,.2-.228l.024-.012c1.6-.856,3.193-1.724,4.8-2.6,2.768-1.508,5.644-3.051,8.485-4.558,1.225-.638,2.463-1.326,3.653-1.977,1.862-1.014,3.783-2.062,5.715-3.026a24.439,24.439,0,0,0,3.607-2.424c.282-.217.565-.447.871-.663a16.013,16.013,0,0,1,3.595-2.147,24.178,24.178,0,0,1,8.072-1.266,29.036,29.036,0,0,0,6.965-.9c2.109-.627,3.583-1.17,4.808-3.015,3.983-5.944,1.956-10.417-1.331-16.084a40.662,40.662,0,0,0-12.574-13.794,21.15,21.15,0,0,0-2.71-1.459,21.681,21.681,0,0,1-3.053-1.688c-1.084-.784-2.144-1.627-3.181-2.436-.825-.674-1.7-1.35-2.557-1.989a50.061,50.061,0,0,0-12.5-7.223,14.872,14.872,0,0,0-4.7-.686,20.376,20.376,0,0,0-3.818.362,12.982,12.982,0,0,0-3.877,1.652c-.531.289-1.1.615-1.686.891a17.45,17.45,0,0,1-1.944.772,14.779,14.779,0,0,0-2.428,1.025c-1.909,1.085-3.794,2.34-5.586,3.569-1.756,1.169-3.559,2.4-5.409,3.461-8.768,5.028-16.263,7.885-23.6,8.97a43.13,43.13,0,0,1-6.575.5,43.884,43.884,0,0,1-8.084-.748c-2.062-.4-4.172-1-6.234-1.592-3.583-1.037-7.27-2.1-10.877-2.1a15.525,15.525,0,0,0-5.468.953c-3.442,1.3-6.516,3.991-9.77,6.848-1.673,1.459-3.405,2.979-5.29,4.4-.425.326-.944.7-1.545,1.121-1.343.964-2.993,2.135-4.419,3.376C130.369,90.6,129.674,92.675,130.523,95.5Zm14.295,6.15a23.591,23.591,0,0,1-.165-7.742c1.014-6.414,6.5-14.626,13.069-16.651a14.274,14.274,0,0,1,4.29-.6,34.588,34.588,0,0,1,8.166,1.314c1.167.278,2.263.542,3.276.736a67.276,67.276,0,0,0,11.914.9c2.569,0,5.173-.084,7.707-.157s5.185-.169,7.8-.169a72.731,72.731,0,0,1,10.9.7c.777.121,1.555.241,2.3.374a45.087,45.087,0,0,0,7.094.783,14.186,14.186,0,0,0,7.99-2.242,12.97,12.97,0,0,1,6.446-2.3c1.343-.085,2.734-.242,4.09-.386a69.244,69.244,0,0,1,7.246-.506h.106c5.433.012,18.667,2.037,22.509,7.946a6.981,6.981,0,0,1,.411,6.764c-1.378,3.376-5.585,5.426-8.767,6.15-.613.144-1.226.289-1.839.41-4.348.964-8.072,1.663-11.407,2.146-.883.121-1.756.217-2.592.289a19.245,19.245,0,0,0-6.375,1.351c-11.773,5.281-19.539,19.365-23.97,30.252-3.37,8.319-6.3,15.482-14.306,18.87A32.036,32.036,0,0,1,189,151.925h-.012a28.334,28.334,0,0,1-8.744-1.242c-4.95-1.6-9.4-4.955-14.554-8.813l-.223-.182c-9.569-7.174-14.307-14.384-17.5-26.539l-.307-1.194C146.584,109.882,145.571,106.034,144.817,101.646Zm.164-.025c.731,4.365,1.745,8.223,2.829,12.3l.307,1.194c3.182,12.117,7.908,19.292,17.428,26.442l.224.18c5.161,3.871,9.592,7.211,14.518,8.8a28.8,28.8,0,0,0,8.7,1.219H189a31.712,31.712,0,0,0,11.655-2.038c7.942-3.352,10.853-10.5,14.211-18.774,4.455-10.925,12.232-25.043,24.064-30.336a19.525,19.525,0,0,1,6.422-1.374c.836-.073,1.709-.157,2.581-.278,3.334-.483,7.058-1.182,11.407-2.135.613-.144,1.226-.277,1.827-.41,3.146-.724,7.293-2.736,8.65-6.052a6.847,6.847,0,0,0-.4-6.632c-3.807-5.847-16.958-7.849-22.368-7.861h-.106a69.061,69.061,0,0,0-7.235.506c-1.355.144-2.745.278-4.088.385a12.815,12.815,0,0,0-6.364,2.279,14.427,14.427,0,0,1-8.084,2.243,45.294,45.294,0,0,1-7.117-.772c-.743-.121-1.52-.242-2.3-.374a74.176,74.176,0,0,0-10.876-.7c-2.616,0-5.256.085-7.8.169s-5.138.157-7.707.157a66.441,66.441,0,0,1-11.938-.9c-1.025-.194-2.132-.458-3.287-.748a34.3,34.3,0,0,0-8.131-1.3,14.607,14.607,0,0,0-4.255.6c-6.5,2.014-11.937,10.152-12.938,16.519A23,23,0,0,0,144.981,101.621ZM325.6,111l-.024.036c-.364.675-.718,1.254-1.037,1.761a11.912,11.912,0,0,0-2.109,5.944,49.111,49.111,0,0,0-.071,7.211,42.433,42.433,0,0,1-.247,8.549c-1.625,10.1-9.486,20.522-18.289,24.223a17.711,17.711,0,0,1-2.816.964,10.833,10.833,0,0,1-1.8.181h0c-5.173,0-6.363-5.209-7.507-10.237-.27-1.121-.53-2.279-.836-3.352-1.179-4.136-2.769-6.872-5.138-8.886-2.392-2-5.609-3.3-10.428-4.22a30.1,30.1,0,0,0-5.5-.543,30.444,30.444,0,0,0-10.712,2.135c-.188.06-.354.121-.53.193-2.31.807-4.278,1.508-5.669,3.714-2.663,4.268-4.832,11.165-3.806,16.049,1,4.787,4.4,5.751,7.978,6.74.7.193,1.391.4,2.1.615a14.86,14.86,0,0,1,2.733,1.194,142.009,142.009,0,0,0,18.844,8.874c6.316,2.5,9.38,7.995,12.337,13.275,2.888,5.136,5.857,10.454,11.785,12.986a7.7,7.7,0,0,0,3.029.59h0a13.015,13.015,0,0,0,4.313-.843c4.231-1.508,8.013-6.15,10.841-10.02,4.431-6.077,9.935-13.637,16.451-18.5.176-.121.342-.241.519-.362v-.2c-.2.144-.4.289-.613.446-6.528,4.86-12.044,12.432-16.486,18.52-2.806,3.858-6.577,8.477-10.759,9.973a13.06,13.06,0,0,1-4.266.82h0a7.652,7.652,0,0,1-2.97-.567c-5.869-2.52-8.839-7.8-11.7-12.926-2.97-5.318-6.068-10.816-12.432-13.336a141.522,141.522,0,0,1-18.82-8.874,13.862,13.862,0,0,0-2.769-1.194c-.683-.23-1.4-.422-2.086-.615-3.547-1-6.893-1.942-7.871-6.632-1.014-4.847,1.143-11.684,3.8-15.929,1.343-2.146,3.3-2.857,5.574-3.641.176-.073.354-.132.542-.193a29.875,29.875,0,0,1,10.653-2.135,29.48,29.48,0,0,1,5.456.543c9.3,1.748,13.2,5.028,15.462,13,.307,1.061.578,2.219.825,3.328,1.166,5.1,2.38,10.358,7.671,10.358h0a9.766,9.766,0,0,0,1.827-.169,16.612,16.612,0,0,0,2.852-.977,30.2,30.2,0,0,0,12-9.85,33.937,33.937,0,0,0,6.4-14.493,44.551,44.551,0,0,0,.235-8.574,47.332,47.332,0,0,1,.083-7.2,11.654,11.654,0,0,1,2.085-5.885c.294-.494.648-1.073,1.038-1.748a16.678,16.678,0,0,1,10.935-3.907,20.076,20.076,0,0,1,3.347.29v-.169a21.436,21.436,0,0,0-3.347-.278A16.828,16.828,0,0,0,325.6,111Zm5.633,11.9a29.95,29.95,0,0,0-1.143,7.825c-.059,1-.118,2.051-.224,3.183-.377,4.389-1.2,8.911-2.015,13.288a95.056,95.056,0,0,0-1.685,11.636v.036l.035.025a2.832,2.832,0,0,0,1.65.736,1.069,1.069,0,0,0,.341-.048l.024-.012c1.58-.928,3.264-1.773,4.9-2.593A54.479,54.479,0,0,0,340,153.132v-.193a54.222,54.222,0,0,1-6.941,3.894c-1.639.82-3.335,1.664-4.915,2.6a1.048,1.048,0,0,1-.27.025,2.708,2.708,0,0,1-1.545-.663A94.556,94.556,0,0,1,328,147.224c.813-4.377,1.65-8.9,2.027-13.3.106-1.133.165-2.182.212-3.183a29.574,29.574,0,0,1,1.143-7.788c1.108-3.316,3.806-5.475,6.87-5.475a7.232,7.232,0,0,1,1.745.228v-.156a7.154,7.154,0,0,0-1.745-.217C335.132,117.333,332.375,119.515,331.232,122.9Zm-54.4,24.754a7.225,7.225,0,0,1,1.284,5.257,4.544,4.544,0,0,1-4.6,3.883h0c-3.865,0-8.308-3.992-9.228-7.271V149.5c.024-3.34,3.029-4.835,6-4.835A8.1,8.1,0,0,1,276.836,147.657Zm-.118.1a7.93,7.93,0,0,0-6.422-2.918c-2.888,0-5.81,1.435-5.845,4.666.907,3.22,5.267,7.139,9.074,7.139a4.327,4.327,0,0,0,2.486-.724,4.512,4.512,0,0,0,1.956-3.039A7.106,7.106,0,0,0,276.718,147.753Zm45.393,16.977c.578,1.821-.483,4.366-1.425,6.633l-.153.361c-2.1,5.052-5.138,11.094-10.229,13.252a4.817,4.817,0,0,1-.8.073h0c-2.8,0-4.69-2.34-5.314-4.655-.435-7.439,5.786-10.574,10.334-12.853.319-.157.613-.3.907-.458.519-.265,1.049-.579,1.568-.88,1.379-.82,2.817-1.677,4.149-1.677a2.581,2.581,0,0,1,.918.157l.036.012Zm-.129.085a2.787,2.787,0,0,0-.836-.121,8.816,8.816,0,0,0-4.067,1.652c-.53.3-1.059.627-1.578.88-.284.157-.6.3-.907.458-4.5,2.267-10.689,5.366-10.252,12.684.613,2.231,2.451,4.51,5.161,4.51h0a5.5,5.5,0,0,0,.754-.061c5.02-2.122,8.049-8.151,10.135-13.154l.153-.374C321.463,169.084,322.511,166.576,321.981,164.815Zm-51.6,65.7c.319,2.424.519,7.041-.742,9.031a5.918,5.918,0,0,1-5.4,2.616h0a14.814,14.814,0,0,1-3.075-.362,13.819,13.819,0,0,1-1.78-.47c-2.144-.759-3.182-2.085-3.677-4.726a30.615,30.615,0,0,1-.223-8.97c.483-3.979,2.78-8.018,6.234-8.018a6.694,6.694,0,0,1,4.466,2.146A14.946,14.946,0,0,1,270.378,230.517Zm-.164.011a14.731,14.731,0,0,0-4.137-8.645,6.5,6.5,0,0,0-4.36-2.1c-3.359,0-5.6,3.967-6.07,7.886a29.783,29.783,0,0,0,.224,8.9c.483,2.629,1.449,3.871,3.559,4.605a13.593,13.593,0,0,0,1.768.47,14.358,14.358,0,0,0,3.04.351,5.758,5.758,0,0,0,5.256-2.532C270.743,237.511,270.508,232.772,270.214,230.528ZM16.627,275.516c1.508-.278,2.781-.6,4.018-.9,1.508-.374,2.935-.736,4.772-1.026,1.686-.253,3.464-.385,5.2-.517,3.877-.254,7.883-.531,11.3-2.363,4.3-2.3,4.75-8.164,3.276-12.951-2.487-8.114-5.692-13.721-9.8-17.145a59.055,59.055,0,0,1-4.6-4.389c-2.958-3-6.009-6.113-9.981-7.753a77.853,77.853,0,0,0-9.887-3.087c-2.039-.543-4.137-1.11-6.129-1.737-.93-.289-1.944-.663-3-1.073-.577-.217-1.178-.433-1.791-.651v.169c.589.216,1.167.433,1.732.638,1.073.4,2.086.784,3.017,1.073,2,.627,4.1,1.194,6.128,1.725a82.686,82.686,0,0,1,9.888,3.087c3.936,1.64,6.976,4.739,9.911,7.717a61.769,61.769,0,0,0,4.619,4.4c4.09,3.4,7.27,8.984,9.745,17.086,1.449,4.714,1.026,10.49-3.193,12.733-3.394,1.82-7.378,2.1-11.243,2.374-1.732.109-3.524.242-5.208.507-1.85.3-3.347.663-4.8,1.025-1.226.314-2.486.626-3.994.9-2.769.506-5.586.893-8.32,1.254-2.876.4-5.68.783-8.284,1.278v.169c2.6-.507,5.408-.893,8.308-1.279C11.041,276.408,13.858,276.034,16.627,275.516Zm-3.559-9.754a81.7,81.7,0,0,0,10.806-3.678c3.477-1.543,7-3.352,8.568-6.993,2.026-4.751.047-9.875-5.3-13.673-.93-.663-1.8-1.315-2.663-1.953-3.583-2.689-6.964-5.222-11.843-6.186A85.624,85.624,0,0,0,0,232.18v.169a80.786,80.786,0,0,1,12.609,1.085c4.832.964,8.2,3.484,11.773,6.161.86.64,1.744,1.3,2.663,1.953,5.291,3.762,7.247,8.8,5.244,13.468-1.533,3.582-5.032,5.391-8.474,6.909A81.554,81.554,0,0,1,13.022,265.6c-1.862.53-3.8,1.1-5.68,1.711A59.026,59.026,0,0,1,0,269.089v.169a59.305,59.305,0,0,0,7.389-1.785C9.263,266.858,11.195,266.291,13.069,265.762Zm-1.143,19.183a77.663,77.663,0,0,0,10.982-.109,74.346,74.346,0,0,0,9.4-1.748c.742-.157,1.473-.338,2.228-.5.554-.132,1.1-.253,1.662-.373,5.68-1.242,11.56-2.509,16.345-5.849,5.574-3.87,6.3-12,3.759-17.6-2.322-5.138-6.211-9.2-9.97-13.131-3.123-3.244-6.351-6.608-8.662-10.586-1.059-1.447-1.932-2.846-2.78-4.2-2.734-4.341-4.891-7.765-10.63-9.139-11.053-2.641-20.6-4.92-22.378-16.193-.624-3.992.237-7.114,1.061-10.129a21.961,21.961,0,0,0,1.143-7.222l-.011-.036-.024-.012c-.295-.278-.577-.567-.848-.857a10.344,10.344,0,0,0-1.167-1.109l-.023-.025H1.979a11.924,11.924,0,0,0-1.979.29v.157a13.11,13.11,0,0,1,1.968-.278,12.066,12.066,0,0,1,1.119,1.073c.272.278.543.579.837.832a21.436,21.436,0,0,1-1.132,7.138c-.824,3.039-1.685,6.173-1.061,10.2,1.792,11.383,11.384,13.673,22.5,16.326,5.68,1.35,7.824,4.762,10.524,9.066.848,1.363,1.744,2.75,2.792,4.2,2.31,3.979,5.551,7.355,8.674,10.622,3.747,3.919,7.636,7.959,9.958,13.07,2.5,5.559,1.8,13.577-3.713,17.424-4.783,3.3-10.629,4.593-16.286,5.812-.565.12-1.119.253-1.673.362-.743.168-1.485.337-2.228.519a78.442,78.442,0,0,1-9.392,1.736,77.373,77.373,0,0,1-10.948.109,63.861,63.861,0,0,0-11.937.3v.169A64.677,64.677,0,0,1,11.926,284.945Zm108-37.9c-1.014-1.253-.825-3.449-.189-5.088.7-1.761,1.851-2.893,3.135-3.05a29.209,29.209,0,0,1,3.135-.182c5.055,0,10.111,1.29,15.472,2.629,3.229.82,6.6,1.664,9.981,2.219a24.379,24.379,0,0,0,3.63.228c.754,0,1.555-.023,2.334-.048s1.614-.036,2.427-.036c4.243,0,8.474.506,10.712,4.124,2.734,4.449,1.851,9.44.991,14.264-.212,1.193-.425,2.435-.59,3.616-.742,5.692-4.8,9.6-11.113,10.755a30.154,30.154,0,0,1-5.4.483,32.623,32.623,0,0,1-10.736-1.821c-5.856-2.073-9.51-4.436-10.888-10.4a27.343,27.343,0,0,0-5.02-10.912,22.877,22.877,0,0,0-4.431-4.607,8.062,8.062,0,0,0-1.39-.784A6.31,6.31,0,0,1,119.929,247.047Zm.129-.1a6.041,6.041,0,0,0,2.015,1.326,10.277,10.277,0,0,1,1.414.809,23,23,0,0,1,4.442,4.63,27.541,27.541,0,0,1,5.056,10.971c1.355,5.909,4.973,8.248,10.782,10.31a32.7,32.7,0,0,0,10.689,1.8,28.833,28.833,0,0,0,5.373-.47c6.246-1.157,10.24-5.015,10.983-10.622.152-1.182.377-2.424.589-3.63.848-4.787,1.721-9.754-.979-14.143-2.191-3.557-6.375-4.039-10.571-4.039-.812,0-1.637.012-2.427.036s-1.58.025-2.334.025a21.789,21.789,0,0,1-3.653-.23c-3.394-.542-6.753-1.387-10-2.206-5.351-1.351-10.383-2.616-15.425-2.616a28.988,28.988,0,0,0-3.123.18c-1.214.144-2.334,1.242-2.994,2.942C119.163,243.9,119.222,245.926,120.058,246.951Zm26.373,21.487a2.8,2.8,0,0,1,.153-2.3c1.1-2.363,4.809-4.521,6.577-5.076a4.406,4.406,0,0,1,4.56,1.242,4.945,4.945,0,0,1,1.378,3.4,3.954,3.954,0,0,1-2.451,3.52,7.8,7.8,0,0,1-.8.326,17.619,17.619,0,0,1-4.748.64C149.283,270.187,147.009,269.873,146.431,268.438Zm.153-.048c.413,1.048,2,1.627,4.514,1.627a17.37,17.37,0,0,0,4.7-.627,7.408,7.408,0,0,0,.778-.326,3.767,3.767,0,0,0,2.357-3.363,4.662,4.662,0,0,0-1.332-3.292,4.247,4.247,0,0,0-3.123-1.387,4.442,4.442,0,0,0-1.284.193c-1.744.531-5.386,2.677-6.481,4.992A2.6,2.6,0,0,0,146.584,268.39Zm53.3,62.819a9.416,9.416,0,0,1-.011-1.157,9.443,9.443,0,0,0-.024-1.278,53.761,53.761,0,0,0-2.451-9.248,71.718,71.718,0,0,1-2.853-10.5c-.223-1.447-.376-3-.53-4.51-.46-4.919-.93-9.984-4.29-12.251-1.519-1.036-3.747-1.506-6.988-1.506-1.815,0-3.771.144-5.691.277-.743.048-1.5.109-2.24.157-6.635.41-20.445,2.171-25.265,5.908-6.577,5.1-7.366,13.855-7.26,21.764.777,9.948,7.424,15.519,14.742,21.138h.259c-7.354-5.644-14.059-11.19-14.861-21.149-.094-7.85.7-16.567,7.223-21.619,4.774-3.714,18.55-5.475,25.172-5.885.742-.036,1.5-.109,2.25-.157,1.909-.144,3.865-.277,5.668-.277,3.217,0,5.41.47,6.906,1.483,3.288,2.219,3.759,7.246,4.231,12.13.129,1.508.282,3.074.519,4.521a72.1,72.1,0,0,0,2.851,10.538,50.127,50.127,0,0,1,2.439,9.2,8.936,8.936,0,0,1,.024,1.253,7.761,7.761,0,0,0,.023,1.182,23.267,23.267,0,0,1-.883,8.779h.165A23.35,23.35,0,0,0,199.884,331.209ZM22.473,332.367c-.094-2.292-.035-4.594.047-6.824a39.991,39.991,0,0,0-.366-9.26c-1.4-6.4-9.286-10.973-16.2-13.119A15.108,15.108,0,0,0,0,302.476v.157a15.426,15.426,0,0,1,5.915.688c6.87,2.134,14.7,6.667,16.085,12.985a39.671,39.671,0,0,1,.366,9.224c-.082,2.242-.153,4.545-.047,6.837A50.082,50.082,0,0,1,22.084,340h.164A50.145,50.145,0,0,0,22.473,332.367Zm169.21-2.641c-.294-1.556-.848-3.436-1.437-5.438a70.99,70.99,0,0,1-2.286-9.465c-.142-.941-.259-1.832-.378-2.7-.766-5.666-1.367-10.139-5.067-13.106-2.522-2.014-7.235-3.219-12.609-3.219-6.54,0-12.621,1.688-16.275,4.521-6,4.642-6.234,12.83-5.386,18.882,1.32,6.45,5.845,9.766,11.584,14a88.368,88.368,0,0,1,8.261,6.6c.07.059.141.145.223.2h.237c-.13-.1-.237-.217-.366-.326a92.171,92.171,0,0,0-8.249-6.619c-5.715-4.184-10.229-7.5-11.537-13.89-.86-6.006-.624-14.12,5.338-18.725,3.606-2.8,9.663-4.475,16.169-4.475,5.337,0,10,1.183,12.515,3.184,3.665,2.918,4.242,7.355,5,12.985.13.88.236,1.785.378,2.7a69.933,69.933,0,0,0,2.3,9.489c.589,2,1.143,3.883,1.426,5.426A22.117,22.117,0,0,1,190.893,340h.165A22.242,22.242,0,0,0,191.682,329.726Zm-114.554-9.6a30.471,30.471,0,0,1-.789-9.936,15.251,15.251,0,0,1,.424-2.026c.625-2.508,1.4-5.618-1.674-7.874l-.023-.011h-.012c-5.7-.688-9.168,4.1-12.22,8.319-.8,1.121-1.543,2.146-2.322,3.1-2.78,2.978-6.563,5.112-10.582,7.391-6.211,3.532-12.645,7.186-15.662,14.3A69.079,69.079,0,0,0,31.936,340H32.1c.719-2.267,1.461-4.571,2.3-6.548,3.017-7.079,9.415-10.695,15.614-14.216,4.018-2.279,7.813-4.425,10.606-7.439.789-.941,1.543-1.99,2.346-3.087,3.028-4.184,6.445-8.935,12.055-8.271,2.958,2.194,2.238,5.112,1.6,7.692a17.618,17.618,0,0,0-.448,2.05,31.051,31.051,0,0,0,.8,9.984,115,115,0,0,0,4.041,11.226c1.132,2.809,2.275,5.691,3.276,8.609h.165c-1-2.942-2.168-5.836-3.288-8.67A109.974,109.974,0,0,1,77.128,320.129Zm100.625-15.011c2.97,3.907,3.1,11.153.343,19.87l-.012.037a17.953,17.953,0,0,1-2.97,3.255l-.012.012h-.023a17.084,17.084,0,0,1-2.853.23h0c-7.518,0-16.6-4.619-18.642-13.191-.329-6.728,1.461-9.5,4.455-11.8a15.653,15.653,0,0,1,9.321-2.846C171.838,300.68,175.633,302.295,177.753,305.117Zm-.129.1c-2.1-2.773-5.833-4.365-10.264-4.365a15.547,15.547,0,0,0-9.239,2.809c-2.935,2.267-4.7,5-4.372,11.659,2,8.465,11.006,13.047,18.477,13.047h0a19.8,19.8,0,0,0,2.816-.217,19.125,19.125,0,0,0,2.911-3.208C180.676,316.27,180.57,309.072,177.624,305.214Zm-49.01,19.5c-1.191-5.86-2.4-11.9-6.14-16.712a7.236,7.236,0,0,0-7.294-2.979c-6.175.941-13.516,6.656-17.465,9.743-4.419,4.714-6.081,10.418-5.1,17.435a65.083,65.083,0,0,0,1.756,7.8h.165a61.574,61.574,0,0,1-1.756-7.825c-.979-6.97.671-12.637,5.043-17.3,3.924-3.051,11.243-8.766,17.383-9.682a9.132,9.132,0,0,1,1.366-.109,7.006,7.006,0,0,1,5.775,3.026c3.712,4.776,4.937,10.792,6.116,16.628,1.049,5.245,2.132,10.684,5.079,15.061a.891.891,0,0,0,.141.2h.188c-.07-.085-.141-.194-.211-.29C130.746,335.358,129.662,329.943,128.614,324.711Zm39.512-12.974c0,.253.012.554-.012.845l-.012.036a2.965,2.965,0,0,1-2.545,1.627h0a2.563,2.563,0,0,1-.93-.18H164.6l-.012-.012a4.743,4.743,0,0,0-.613-.6,1.665,1.665,0,0,1-.411-1.3,2.821,2.821,0,0,1,1.072-1.869l.012-.011a2.386,2.386,0,0,1,.942-.194,3.033,3.033,0,0,1,2.522,1.629l.012.023Zm-.165.023a2.865,2.865,0,0,0-2.369-1.519,2.377,2.377,0,0,0-.883.169,2.742,2.742,0,0,0-.99,1.748,1.553,1.553,0,0,0,.364,1.182,5.441,5.441,0,0,1,.6.59,2.823,2.823,0,0,0,.872.145h0a2.76,2.76,0,0,0,2.392-1.519A5.929,5.929,0,0,0,167.961,311.76ZM7.824,318.935c-1.968-2.472-3.806-3.484-7.824-4.256v.168c3.947.761,5.762,1.748,7.707,4.184,3.428,4.329,5.538,12.383,6.044,18.039q.141,1.572.141,2.93h.153c0-.905-.035-1.894-.129-2.942C13.41,331.378,11.277,323.276,7.824,318.935Zm101.4,2.122c-.223,0-.459,0-.7.023a7.9,7.9,0,0,0-5.5,2.955c-2.062,2.508-2.982,6.343-2.581,10.791a41.469,41.469,0,0,0,.8,5.173h.153a43.743,43.743,0,0,1-.8-5.186c-.389-4.413.507-8.2,2.545-10.683a7.757,7.757,0,0,1,5.4-2.906c.235-.011.46-.023.683-.023,6.4,0,8.768,7.8,10.854,14.662.436,1.447.859,2.857,1.307,4.136h.177c-.46-1.279-.883-2.714-1.332-4.184C118.137,328.894,115.757,321.057,109.228,321.057Zm-43.46,6.487a22.4,22.4,0,0,0-3.241-.23A23.409,23.409,0,0,0,41.716,340h.177a23.142,23.142,0,0,1,20.634-12.528,26.271,26.271,0,0,1,3.229.217c4.654.651,9.251,4.605,12.574,10.839.259.483.519.977.742,1.472h.165c-.235-.519-.495-1.037-.766-1.543C75.113,332.174,70.494,328.2,65.768,327.544Zm-65.545,6.9a1.428,1.428,0,0,0-.223.011v.146H.223a3.177,3.177,0,0,1,2.853,2.29A8.278,8.278,0,0,1,3.63,340h.176a8.489,8.489,0,0,0-.589-3.172A3.344,3.344,0,0,0,.223,334.441ZM53.5,340h.27a15.094,15.094,0,0,1,8.615-2.75A13.024,13.024,0,0,1,70.494,340h.259a13.15,13.15,0,0,0-8.367-2.906A15.183,15.183,0,0,0,53.5,340Zm228.4-15.663a120.055,120.055,0,0,1-5.338-10.876c-.848-2.05-1.615-4.292-2.427-6.68-3.466-10.189-7.39-21.727-19.551-21.727H254.1a28.447,28.447,0,0,0-11.29,3c-.659.3-1.343.627-2.026.964-2.039.953-4.149,1.942-6.046,3.015-5.527,3.123-11.867,4.642-17.982,6.125l-.083.012c-.518.132-1.072.264-1.662.373-4.1.893-9.2,2.014-10.829,6.886-1.238,3.761-.094,8.572,1,13.215.4,1.7.777,3.3,1.036,4.823a43.848,43.848,0,0,1,.165,14.758c-.106.579-.224,1.169-.366,1.773h.165c.141-.591.247-1.17.353-1.748a44.175,44.175,0,0,0-.165-14.808c-.27-1.531-.636-3.135-1.037-4.835-1.108-4.63-2.228-9.417-1-13.13,1.59-4.8,6.647-5.885,10.712-6.765.589-.132,1.143-.253,1.662-.385l.082-.012c6.14-1.472,12.492-3,18.03-6.138,1.874-1.061,3.983-2.062,6.023-3.026.7-.314,1.366-.64,2.026-.953A28.313,28.313,0,0,1,254.1,285.21c.165-.012.33-.012.483-.012,12.044,0,15.944,11.49,19.409,21.643.8,2.376,1.568,4.63,2.416,6.692,1.555,3.762,3.477,7.38,5.351,10.9,1.59,2.978,3.1,5.788,4.395,8.693A29.051,29.051,0,0,0,290.223,340h.211a28.029,28.029,0,0,1-4.147-6.934C285,330.161,283.493,327.339,281.9,324.337Zm53.736-30.481c-10.016,3.87-16.709,11.176-19.337,21.137a93.9,93.9,0,0,0-1.756,9.766,73.339,73.339,0,0,1-2.322,11.744A11.493,11.493,0,0,1,310.3,340h.188a11.455,11.455,0,0,0,1.874-3.437,71.425,71.425,0,0,0,2.334-11.78,96.009,96.009,0,0,1,1.756-9.754c2.616-9.887,9.263-17.17,19.243-21.028a26.722,26.722,0,0,1,3.442-.966c.283-.048.565-.107.86-.144v-.168c-.306.059-.6.1-.9.156A25.634,25.634,0,0,0,335.639,293.856Zm-9.733-73.588a40.208,40.208,0,0,0-9.275,3.882,38.986,38.986,0,0,1-9.262,3.835c-8.238,1.821-11.29-5.559-13.976-12.094-.39-.928-.754-1.821-1.12-2.677a56.984,56.984,0,0,0-5.185-9.285A48.146,48.146,0,0,0,273.9,190.811c-4.537-2.93-8.366-4.533-12.02-5.028-5.927-.808-10.146,1.073-15,3.231-1.05.47-2.146.966-3.264,1.424-3.206,1.326-6.847,2.834-9.334,6.113a45.643,45.643,0,0,0-4.619,8.332l-.319.651a163.484,163.484,0,0,0-6.292,16.109c-.437,1.254-.872,2.532-1.3,3.787-1.166,3.436-2.369,6.993-3.841,10.357a34.84,34.84,0,0,1-4.384,6.97c-.907,1.205-1.839,2.447-2.651,3.737-2.086,3.256-5.351,6.1-8.521,8.85-1.143,1-2.227,1.941-3.24,2.894-.637.579-1.308,1.182-2.039,1.809-3.276,2.893-6.988,6.173-7.965,10.333-.13.554-.249,1.109-.366,1.64-1.049,4.654-1.968,8.681-6.517,11.6-4.3,2.762-9.533,3.653-14.14,4.437-2.181.374-4.4.663-6.528.964a87.8,87.8,0,0,0-11.066,1.93c-7.731,2.11-12.445,7.6-14.012,16.337-1.52,8.526.024,18.93,1.745,23.188A24.911,24.911,0,0,0,145.5,340h.259a24.918,24.918,0,0,1-7.389-9.6c-1.7-4.22-3.253-14.589-1.733-23.09,1.568-8.67,6.222-14.12,13.894-16.193a85.547,85.547,0,0,1,11.053-1.953c2.133-.278,4.349-.567,6.528-.941,4.619-.8,9.864-1.688,14.2-4.473,4.619-2.955,5.515-7.006,6.575-11.7.129-.53.259-1.085.376-1.64.967-4.112,4.668-7.355,7.92-10.237.719-.638,1.414-1.242,2.038-1.832,1.014-.941,2.086-1.893,3.241-2.882,3.17-2.762,6.446-5.594,8.531-8.887.825-1.278,1.756-2.52,2.652-3.725a36.347,36.347,0,0,0,4.419-6.993c1.472-3.365,2.674-6.933,3.841-10.381.425-1.242.861-2.532,1.3-3.787a166.01,166.01,0,0,1,6.293-16.1l.295-.651a46.035,46.035,0,0,1,4.631-8.308c2.452-3.231,6.07-4.726,9.251-6.04,1.132-.483,2.216-.966,3.264-1.424,4.844-2.169,9.027-4.039,14.932-3.244,3.629.507,7.424,2.087,11.949,5.017a47.906,47.906,0,0,1,13.151,13.094,56.806,56.806,0,0,1,5.15,9.249c.376.843.742,1.736,1.131,2.677,1.308,3.146,2.769,6.715,4.926,9.187a8.873,8.873,0,0,0,9.24,3,39.493,39.493,0,0,0,9.286-3.871,40.407,40.407,0,0,1,9.239-3.846c5.232-1.194,10.029.193,14.059,1.652v-.169C335.958,220.461,331.161,219.1,325.906,220.268Zm-8.3,60.938c-3.736,3.714-7.27,7.235-11.9,8.609-6.434,1.941-11.3-2.905-16.015-7.608-.282-.289-.577-.579-.86-.868a44.856,44.856,0,0,0-8.025-5.885,62.276,62.276,0,0,1-5.892-4.015c-1.39-1.121-2.863-2.158-4.29-3.158-.965-.7-1.956-1.4-2.9-2.1a16.077,16.077,0,0,1-3.747-4.846,27.432,27.432,0,0,0-1.839-2.834,30.281,30.281,0,0,0-6.858-5.957c-4.549-3.206-8.85-6.245-9.157-12.54a34.139,34.139,0,0,1,2.263-12.78,37.677,37.677,0,0,1,8-12.311c2.416-2.508,4.868-3.678,7.284-3.473,4.289.374,7.965,5.017,10.688,9.032a21.838,21.838,0,0,1,2.9,7.041,40.531,40.531,0,0,0,1.4,4.352c.612,1.52,1.355,3.015,2.05,4.462a42.331,42.331,0,0,1,2.993,7.15c1.2,4.208,1.439,10.308-.424,13.83-1.815,3.4-.954,9.176.954,12.2,1.732,2.748,6.069,4.5,9.557,5.908.789.314,1.519.627,2.179.9.307.144.625.278.919.422a15.614,15.614,0,0,0,3.182,1.194c5.408,1.133,9.144-1.52,11.395-8.1,2.369-6.92.73-13.215-4.619-17.736a34.1,34.1,0,0,0-5.291-3.424c-.813-.458-1.662-.941-2.475-1.435-.211-.133-.424-.253-.636-.4-2.357-1.435-5.279-3.219-6.894-5.293a44.707,44.707,0,0,1-5.892-10.02c-.754-1.809-1.355-3.653-1.979-5.619-.46-1.41-.932-2.857-1.473-4.329a37.171,37.171,0,0,0-4.466-8.235c-2.546-3.545-7.129-8.307-11.691-10.043-7.211-2.737-16.922,4.545-21.694,10.091a36.806,36.806,0,0,0-5.763,10.37c-.364.916-.718,1.857-1.084,2.761-1.968,5.065-3.842,9.852-6.953,14.264a44.715,44.715,0,0,0-2.627,4.413c-.578,1.049-1.167,2.158-1.827,3.208-1.674,2.677-4.219,4.268-6.729,5.594-1.155.615-2.357,1.182-3.512,1.748-3.347,1.592-6.8,3.256-9.616,5.969-1.792,1.736-2.5,3.57-2.121,5.462.625,3.135,4.018,5.486,7,6.619,6.187,2.363,13.351,1.508,19.656.736l.813-.084c.507-.061,1-.109,1.5-.169,2.782-.289,5.421-.567,8.061-2.11.424-.241.836-.483,1.249-.724,3.994-2.327,7.448-4.352,12.031-5.389,2.875-.663,7.153-.6,9.757,1.073a6.869,6.869,0,0,1,2.44,3.4,12.694,12.694,0,0,0,1.273,2.411,41.863,41.863,0,0,0,8.013,7.476,42.531,42.531,0,0,1,7.908,7.307,41.792,41.792,0,0,1,3.477,5.835,38.468,38.468,0,0,0,3.429,5.751,8.717,8.717,0,0,0,10,3.2c3.346-1.073,7.058-3.978,10.653-6.788.554-.433,1.084-.856,1.615-1.266,1.873-1.447,3.7-2.967,5.468-4.437,4.855-4.039,9.451-7.861,14.624-10.007A37.161,37.161,0,0,1,340,278.06v-.169a36.43,36.43,0,0,0-6.965,1.977c-5.2,2.147-9.8,5.993-14.671,10.032-1.768,1.472-3.583,2.978-5.457,4.425-.53.41-1.072.832-1.6,1.267-3.582,2.8-7.282,5.7-10.618,6.764a8.55,8.55,0,0,1-9.828-3.147,38.02,38.02,0,0,1-3.417-5.7,40.938,40.938,0,0,0-3.5-5.872,43.3,43.3,0,0,0-7.932-7.343,41.53,41.53,0,0,1-7.977-7.451,12.939,12.939,0,0,1-1.261-2.363,7.274,7.274,0,0,0-2.487-3.484c-2.651-1.7-6.988-1.761-9.887-1.1-4.607,1.061-8.072,3.074-12.079,5.426-.411.228-.836.469-1.249.735-2.6,1.508-5.22,1.773-8,2.062-.483.061-.99.121-1.5.169l-.8.109c-6.305.747-13.434,1.6-19.6-.748-3.689-1.4-6.4-3.955-6.894-6.5-.366-1.833.329-3.618,2.085-5.305,2.781-2.689,6.234-4.354,9.557-5.956,1.167-.543,2.369-1.122,3.536-1.737a16.63,16.63,0,0,0,6.788-5.667c.648-1.048,1.249-2.134,1.827-3.194a43.545,43.545,0,0,1,2.616-4.389c3.134-4.437,5-9.237,6.976-14.313.354-.916.707-1.832,1.084-2.773a37.129,37.129,0,0,1,5.727-10.31c4.738-5.51,14.378-12.757,21.518-10.043,4.525,1.711,9.086,6.462,11.609,9.995a35.394,35.394,0,0,1,4.466,8.187c.542,1.459,1.014,2.918,1.461,4.316.624,1.966,1.225,3.823,1.991,5.631a44.932,44.932,0,0,0,5.9,10.055c1.637,2.1,4.572,3.9,6.929,5.343.223.12.436.253.66.4.8.494,1.662.964,2.475,1.435a32.694,32.694,0,0,1,5.255,3.4c5.291,4.473,6.917,10.707,4.584,17.567-2.228,6.5-5.9,9.1-11.231,7.995a15.1,15.1,0,0,1-3.146-1.182c-.294-.133-.613-.278-.919-.435-.648-.277-1.4-.567-2.181-.891-3.475-1.411-7.789-3.147-9.486-5.849-1.874-2.99-2.734-8.669-.955-12.033,1.874-3.545,1.638-9.718.436-13.962a44.06,44.06,0,0,0-2.981-7.175c-.719-1.447-1.438-2.942-2.051-4.461a39.671,39.671,0,0,1-1.4-4.329,21.741,21.741,0,0,0-2.923-7.09c-2.745-4.028-6.457-8.718-10.806-9.091-2.463-.217-4.949.964-7.4,3.508a37.793,37.793,0,0,0-8.038,12.372,34.341,34.341,0,0,0-2.273,12.853c.307,6.366,4.832,9.561,9.214,12.661a30.289,30.289,0,0,1,6.835,5.92,25.6,25.6,0,0,1,1.827,2.834,16.555,16.555,0,0,0,3.771,4.871c.955.711,1.956,1.422,2.911,2.1,1.414,1.014,2.888,2.062,4.278,3.16a58.239,58.239,0,0,0,5.917,4.015,44.369,44.369,0,0,1,7.99,5.883c.306.29.577.567.871.869,4.738,4.714,9.641,9.61,16.169,7.644,4.654-1.387,8.213-4.908,11.973-8.645,3.559-3.545,7.258-7.223,12.231-9.357A53.246,53.246,0,0,1,340,269.113v-.168a52.465,52.465,0,0,0-10.111,2.893C324.9,273.972,321.2,277.65,317.61,281.206Zm5.8-48.073a35.7,35.7,0,0,0-7.943,3.267c-4.6,2.315-9.334,4.715-13.706,3.316-7.861-2.508-10.877-11.057-13.541-18.581-.554-1.543-1.059-2.99-1.613-4.389a40.552,40.552,0,0,0-4.537-8.524c-2.794-3.979-6.222-6.439-9.852-9.031-.554-.386-1.1-.784-1.662-1.182-3.194-2.327-7.094-4.619-11.6-3.956a14.286,14.286,0,0,0-4.3,1.725,22.1,22.1,0,0,1-2.569,1.23c-.613.23-1.237.47-1.874.711-4.819,1.773-9.8,3.63-13.233,7.621a27.088,27.088,0,0,0-2.64,4.063c-.425.759-.826,1.459-1.237,2.135a48.918,48.918,0,0,0-4.384,8.742,69.276,69.276,0,0,0-2.794,10.61,63.548,63.548,0,0,1-3.123,11.383c-1.543,3.689-5.621,6.343-9.227,8.67-.979.638-1.909,1.242-2.734,1.845a52.729,52.729,0,0,0-6.622,5.908c-1.343,1.338-2.734,2.737-4.207,4-3.406,2.942-4.926,7.97-4,13.119,1.65,9.019,5.079,10.5,12.5,11.768,5.656.953,12.243.724,20.115-.674,4.537-.821,8.85-3.823,13.011-6.7,1.519-1.062,2.946-2.05,4.348-2.906,5.845-3.616,12.786-2.857,18.548,2.014.743.615,1.486,1.23,2.228,1.821,4.384,3.593,8.531,6.981,10.735,12.37a53.609,53.609,0,0,1,2.24,7.3,54.808,54.808,0,0,0,2.168,7.161,29.351,29.351,0,0,0,7.236,10.1c2.628,2.376,6.61,4.931,10.641,3.725,3.748-1.121,5.952-5.473,8.3-10.08a47.015,47.015,0,0,1,5.079-8.451A57.523,57.523,0,0,1,321.8,295.1l.248-.2c5.231-4.147,10.158-8.079,16.686-9.4.411-.1.836-.169,1.261-.228v-.169c-.437.072-.86.144-1.308.228-6.565,1.338-11.5,5.282-16.723,9.442l-.27.2a58.855,58.855,0,0,0-8.662,8.187,48.474,48.474,0,0,0-5.091,8.489c-2.322,4.582-4.525,8.9-8.2,10-3.947,1.193-7.883-1.338-10.488-3.678a29.4,29.4,0,0,1-7.188-10.057,54.52,54.52,0,0,1-2.168-7.138,54.508,54.508,0,0,0-2.24-7.319c-2.226-5.425-6.587-8.982-10.806-12.431-.718-.59-1.472-1.205-2.2-1.82-5.833-4.92-12.833-5.667-18.736-2.038-1.414.868-2.841,1.857-4.337,2.906-4.172,2.893-8.472,5.871-12.975,6.68-7.848,1.422-14.412,1.64-20.057.675-7.342-1.242-10.735-2.725-12.374-11.636-.93-5.088.589-10.057,3.936-12.949,1.473-1.29,2.876-2.677,4.231-4.028a53,53,0,0,1,6.587-5.9c.824-.59,1.768-1.193,2.733-1.832,3.618-2.339,7.719-4.992,9.287-8.729a63.639,63.639,0,0,0,3.134-11.418,68.174,68.174,0,0,1,2.794-10.575,49.14,49.14,0,0,1,4.36-8.729c.425-.663.825-1.387,1.249-2.135a26.782,26.782,0,0,1,2.628-4.039c3.405-3.955,8.367-5.8,13.163-7.585.625-.241,1.249-.469,1.886-.7a26.306,26.306,0,0,0,2.557-1.242,14.331,14.331,0,0,1,4.266-1.713c4.454-.651,8.3,1.629,11.489,3.931.566.41,1.1.784,1.651,1.169,3.629,2.605,7.046,5.04,9.815,8.995a40.846,40.846,0,0,1,4.525,8.513c.543,1.374,1.05,2.834,1.6,4.377,2.675,7.56,5.7,16.145,13.659,18.677,4.419,1.41,9.2-1,13.811-3.329a35.52,35.52,0,0,1,7.9-3.255c3.583-.784,10.193-1.1,16.569-.941v-.169C333.613,232.048,326.989,232.35,323.408,233.134ZM320.191,104.2a18.282,18.282,0,0,0-7.66,12.841,27.95,27.95,0,0,0,.165,6.717,27.133,27.133,0,0,1,.141,7.1,8.641,8.641,0,0,1-3.548,6.052,4.409,4.409,0,0,1-4.041.278c-4.644-5.523-8.437-9.189-14.154-11.575-1.637-.675-3.287-1.267-5.349-1.917-1-.326-2.015-.663-2.994-.989-6.21-2.085-12.644-4.233-23.1-3.352-5.021.422-8.8,1.375-12.1,4.787a40.578,40.578,0,0,0-5.4,7.6,62.433,62.433,0,0,1-3.689,5.594c-.7.893-1.508,1.772-2.3,2.629a27.681,27.681,0,0,0-3.288,4.015c-1.85,3-1.932,8.006-1.237,11.37.918,4.4,3.665,8.175,6.422,11.672.672.868,1.32,1.821,2.027,2.821,1.838,2.7,3.747,5.486,6.4,6.933,2.911,1.568,6.305,1.58,9.534,1.351a18.253,18.253,0,0,0,3.358-.688,11.115,11.115,0,0,1,4.9-.615c5.739,1.049,12.244,5.138,16.4,8.622a39.683,39.683,0,0,1,6.093,6.318c1.39,1.809,2.722,3.629,4.149,5.582,2.427,3.329,4.937,6.765,7.789,10.165,2.651,3.171,6.1,6.161,11.524,4.244a31.707,31.707,0,0,0,8.191-4.823c3.641-2.748,6.94-6.6,10.134-10.333,2.911-3.424,5.68-6.656,8.4-8.633A7.975,7.975,0,0,1,340,186.579v-.157a8.141,8.141,0,0,0-3.123,1.41c-2.746,1.99-5.5,5.222-8.437,8.67-3.17,3.714-6.458,7.572-10.1,10.3a30.243,30.243,0,0,1-8.143,4.8c-5.337,1.894-8.744-1.061-11.36-4.183-2.839-3.4-5.361-6.849-7.777-10.165-1.426-1.953-2.769-3.786-4.16-5.582a39.583,39.583,0,0,0-6.117-6.355c-4.182-3.484-10.712-7.6-16.474-8.645a11.224,11.224,0,0,0-4.973.615,17.743,17.743,0,0,1-3.323.675c-3.205.23-6.575.23-9.451-1.326-2.616-1.422-4.513-4.2-6.352-6.872-.683-1.014-1.343-1.966-2.026-2.846-2.734-3.461-5.492-7.223-6.387-11.6-.684-3.34-.6-8.284,1.225-11.249a25.951,25.951,0,0,1,3.264-4c.79-.845,1.615-1.725,2.3-2.616a55.3,55.3,0,0,0,3.688-5.619,40.629,40.629,0,0,1,5.4-7.56c3.264-3.376,7.011-4.329,12-4.751,10.43-.868,16.852,1.267,23.039,3.352.979.326,1.992.663,2.994.989,2.05.651,3.712,1.242,5.326,1.917,5.7,2.363,9.5,6.029,14.105,11.538l.012.012.023.012a4.675,4.675,0,0,0,4.208-.278,8.879,8.879,0,0,0,3.63-6.173,28.452,28.452,0,0,0-.153-7.138,28.962,28.962,0,0,1-.165-6.68,18.166,18.166,0,0,1,7.589-12.733c4.867-3.46,11.666-5.076,19.727-4.762V99.4C331.9,99.1,325.08,100.718,320.191,104.2ZM92.672,15.507c.27,2.267.612,6.475-.153,9.3-1.273,4.655-4.95,8.658-8.5,12.541C79,42.8,73.817,48.46,75.407,56.021c.86,4.074,3,6.607,6.6,7.753,3.111,1,6.941.868,11.254.627,7.871-.447,13.21.88,16.31,2.085a43.359,43.359,0,0,1,8.814,5.233c3.748,2.641,7.295,5.149,11.3,5.7a11.628,11.628,0,0,0,4.431-.182c3.748-.845,6.577-2.773,9.569-4.823,5.091-3.461,10.346-7.054,20.551-4.968,2.24.447,4.466,1.133,6.824,1.846,7.518,2.278,15.3,4.618,23.992-.1,7.861-4.039,12.81-11.454,17.583-18.629a112.737,112.737,0,0,1,7.082-9.85c3.264-3.883,7.707-9.2,13.163-7.355a42.184,42.184,0,0,0,6.647,1.435c3.477.567,7.058,1.146,10.287,3.219a27.661,27.661,0,0,1,5.845,5.644c.813.952,1.662,1.941,2.545,2.857a46.535,46.535,0,0,1,5.068,6.68,54.748,54.748,0,0,0,4.23,5.752c2.121,1.916,3.983,3.593,6.152,5.594a86.747,86.747,0,0,1,7.319,8.15c4.43,5.391,8.6,10.466,14.058,12.106,3.853,1.169,7.836,1.012,12.915-.483a72.175,72.175,0,0,0,8.815-3.545,117.894,117.894,0,0,0,15.39-8.681A21.454,21.454,0,0,0,340,62.338v-.422a21.263,21.263,0,0,1-7.92,10.032,118.747,118.747,0,0,1-15.39,8.681,71.8,71.8,0,0,1-8.779,3.534c-5.067,1.483-9.015,1.64-12.833.494-5.408-1.627-9.569-6.692-13.988-12.058a83.9,83.9,0,0,0-7.342-8.163c-2.168-2.014-4.018-3.7-6.14-5.607A54.68,54.68,0,0,1,263.4,53.1a48.245,48.245,0,0,0-5.079-6.692c-.9-.916-1.732-1.905-2.545-2.869a27.345,27.345,0,0,0-5.88-5.655c-3.253-2.1-6.859-2.677-10.348-3.231a42.363,42.363,0,0,1-6.61-1.447c-5.562-1.869-10.064,3.484-13.34,7.4a115.7,115.7,0,0,0-7.094,9.863c-4.773,7.175-9.7,14.578-17.511,18.581-8.65,4.691-16.4,2.351-23.9.085-2.357-.712-4.584-1.387-6.835-1.846-10.252-2.085-15.544,1.508-20.658,4.992-2.982,2.038-5.8,3.956-9.534,4.8a11.447,11.447,0,0,1-4.36.169c-3.959-.531-7.507-3.026-11.242-5.68a43.557,43.557,0,0,0-8.85-5.245c-3.1-1.205-8.461-2.543-16.369-2.1-7.389.422-15.779.9-17.7-8.248-1.555-7.475,3.595-13.106,8.58-18.544,3.571-3.9,7.258-7.911,8.531-12.6.742-2.689.507-6.572.176-9.357A94.277,94.277,0,0,0,89.643,1.568C89.5,1.049,89.36.531,89.207,0h-.165c.153.543.306,1.074.46,1.616A92.489,92.489,0,0,1,92.672,15.507ZM322.429,322.154c-.589,3.22-.86,6.548-1.131,9.768-.237,2.809-.46,5.534-.884,8.079h.153c.425-2.557.66-5.294.885-8.067.282-3.219.553-6.546,1.143-9.754,2.038-11.19,7.506-17.881,15.826-19.34.542-.1,1.061-.157,1.579-.2v-.157a12.99,12.99,0,0,0-1.615.2C330.006,304.152,324.491,310.881,322.429,322.154Zm-46.018,8.9a78.9,78.9,0,0,0-3.841-10.043l-.248-.567c-.932-2.183-1.7-4.51-2.5-6.982-1.638-5.051-3.334-10.273-6.694-14.035-2.981-3.327-7.847-5.245-13.363-5.245a20.706,20.706,0,0,0-8.579,1.773,25.015,25.015,0,0,0-7.389,4.967c-1.662,1.652-4.09,2.508-6.434,3.365a27.34,27.34,0,0,0-4.6,1.941c-4.266,2.484-6.953,5.944-7.754,10.057-.754,3.821-.671,8.753-.589,13.516.035,2.894.094,5.9-.035,8.669-.024.483-.059,1.014-.106,1.532h.165c.035-.519.07-1.037.094-1.532.129-2.761.082-5.775.035-8.669-.082-4.764-.153-9.682.589-13.493.8-4.051,3.454-7.487,7.684-9.948a28.28,28.28,0,0,1,4.572-1.929c2.345-.845,4.783-1.713,6.481-3.388a24.985,24.985,0,0,1,7.352-4.944,20.6,20.6,0,0,1,8.509-1.748c5.468,0,10.288,1.893,13.246,5.2,3.334,3.737,5.032,8.934,6.657,13.974.813,2.459,1.568,4.812,2.51,6.982l.259.578a80.076,80.076,0,0,1,3.818,10.021c.519,1.868.967,3.93,1.4,5.931.224,1.025.437,2.014.66,2.967h.165c-.224-.953-.448-1.966-.672-3C277.39,335,276.942,332.921,276.411,331.052Zm-7.223,2.906a36.25,36.25,0,0,0-1.85-8.175,12.4,12.4,0,0,0-1.674-2.8,15.3,15.3,0,0,1-1.343-2.062,29.244,29.244,0,0,1-1.485-3.52c-1.367-3.582-2.769-7.283-6.634-8.332a14.317,14.317,0,0,0-3.677-.362c-1.637,0-3.37.132-4.914.265-.613.036-1.178.084-1.709.132a27.769,27.769,0,0,0-14.342,5.245c-4.8,3.57-6.175,9.586-6.8,13.83-.472,3.039-.9,7.537.542,11.347.07.157.129.314.188.47h.177c-.071-.181-.153-.351-.224-.531-1.426-3.762-.99-8.248-.542-11.274.624-4.2,2-10.189,6.752-13.721a27.86,27.86,0,0,1,14.26-5.221c.53-.023,1.1-.072,1.709-.12,1.543-.133,3.276-.278,4.9-.278a14,14,0,0,1,3.642.385c3.794,1.026,5.173,4.691,6.516,8.212a33.116,33.116,0,0,0,1.5,3.545,16.82,16.82,0,0,0,1.355,2.074,13.479,13.479,0,0,1,1.661,2.761,36.477,36.477,0,0,1,1.838,8.151A40.824,40.824,0,0,1,269.4,340h.153A39.728,39.728,0,0,0,269.188,333.959Zm70.67-19.3h-.011c-7.46.688-11.632,8.995-12.739,25.346h.165c1.1-16.242,5.208-24.489,12.574-25.189a.663.663,0,0,0,.153.025v-.157a.5.5,0,0,0-.142-.025Zm-1.873,20.534A11.52,11.52,0,0,0,336.217,340h.153a11.657,11.657,0,0,1,1.744-4.7,4.465,4.465,0,0,1,1.886-.7v-.146a4.479,4.479,0,0,0-1.992.712ZM87,318.247c1.226-4.087,3.312-6.559,6.587-10.26.507-.591,1.073-1.169,1.674-1.809,2.334-2.472,4.985-5.281,5.574-8.2,1.179-5.835-2.345-9.26-5.962-11.816a42.962,42.962,0,0,0-5.739-3.231,32.988,32.988,0,0,1-7.26-4.45,24.4,24.4,0,0,1-5.868-8.585,23.084,23.084,0,0,1-1.379-5.1,23,23,0,0,0-1.307-4.967c-3.159-7.234-7.284-15.41-14.024-21.137-2.933-2.484-6.634-6.415-7.612-11.094a14.772,14.772,0,0,1,.967-7.922l.117-.385c1.6-4.871,6.387-16.494,16.4-19.425a64.477,64.477,0,0,1,6.316-1.338,48.22,48.22,0,0,0,8.143-1.88,31.118,31.118,0,0,0,8.5-5.136l.378-.289c2.486-1.955,5.586-4.377,9.627-4.065a20.3,20.3,0,0,1,10.959,5.149c3.5,3.015,5.833,6.669,6.435,10.032.376,2.171.554,3.919.718,5.607.153,1.459.272,2.834.542,4.354a27.506,27.506,0,0,0,10.595,17.989c4.666,3.521,10.876,5.993,18.489,7.332a36.462,36.462,0,0,0,21.4-3.039c5-2.388,10.348-8.127,14.967-13.336,4.6-5.173,7.023-8.235,7.565-16.446a51.378,51.378,0,0,0-.235-7.669c-.071-.966-.165-1.953-.224-2.942-.035-.724-.094-1.447-.164-2.219a30.231,30.231,0,0,1,0-7.729c.93-5.473,4.018-7.9,9.474-7.355a18.915,18.915,0,0,1,15.826,12.286c1.992,5.4.39,11.046-.883,15.6l-.212.748c-2.109,7.535-4.985,13.408-8.767,17.965-2.156,2.568-4.525,4.981-6.835,7.332-.86.856-1.733,1.748-2.581,2.64-1.2,1.242-2.534,2.388-3.83,3.486a42.474,42.474,0,0,0-4.713,4.473,39.075,39.075,0,0,0-4.725,7.234,103.377,103.377,0,0,0-8.414,19.992,17.164,17.164,0,0,1-11.407,11.538c-7.223,2.3-17.571,2.038-30.745-.8-6.458-1.4-10.311-5.184-11.419-11.274-1.261-6.945-5.857-10.406-10.7-14.059-1.249-.941-2.533-1.917-3.782-2.942-5.15-4.316-2.581-8.4.129-12.732a22.845,22.845,0,0,0,2.994-5.969c.859-3.183-.249-6.548-1.308-9.8a33.739,33.739,0,0,1-1.332-4.871c-1.249-7.512-2.5-13.445-6.234-15.879-2-1.3-4.572-1.483-7.871-.531-.531.133-1.12.314-1.745.506-1.272.386-2.722.82-3.912,1.085a60.893,60.893,0,0,1-6.481,1.037c-2.416.314-4.9.627-7.648,1.217a19.871,19.871,0,0,0-10.582,5.92,19.657,19.657,0,0,0-5,10.732,11.22,11.22,0,0,0,.165,4.858c1.367,4.751,5.586,8.1,9.3,11.057.86.675,1.672,1.315,2.451,1.978l.129.109c3.595,3.039,8.073,6.824,7.908,12.021-.176,5.354.495,9.237,2.228,13,2.734,5.909,6.587,9.5,13.3,12.372.507.2,1,.422,1.508.627a62.032,62.032,0,0,1,6.894,3.255,17.946,17.946,0,0,1,4.29,3.714c.707.761,1.437,1.543,2.275,2.292a26.647,26.647,0,0,1,2.958,3.34c2.533,3.206,5.408,6.837,9.852,5.969,2.275-.447,4.513-2.05,6.894-3.739a32.845,32.845,0,0,1,6.634-3.991c4.088-1.64,9.852-2.026,15.955-2.447,3.7-.253,7.542-.519,11.043-1.074,7.965-1.289,13.351-4.147,16.462-8.742a20.873,20.873,0,0,0,2.121-4.365,26,26,0,0,1,1.52-3.424,8.621,8.621,0,0,1,1.838-2.11,12.094,12.094,0,0,0,1.12-1.11c.637-.724,1.249-1.483,1.85-2.23.66-.82,1.344-1.677,2.074-2.484,1.132-1.266,2.416-2.424,3.653-3.57,1.144-1.061,2.334-2.158,3.417-3.34a25.676,25.676,0,0,0,2.311-3.026,21.9,21.9,0,0,1,2.663-3.4,44.814,44.814,0,0,0,5.232-6.1,21.521,21.521,0,0,0,2.521-5.776c.178-.615.378-1.242.613-1.893a19.679,19.679,0,0,1,2.216-4.124c.507-.784,1.014-1.579,1.438-2.376a78.811,78.811,0,0,0,4.112-8.995c.307-.832.589-1.675.883-2.5.118-.351.247-.688.366-1.037.554-1.568,1.143-3.16,1.721-4.7a99.766,99.766,0,0,0,4.254-13.311,20.292,20.292,0,0,0,.46-8.392c-2.05-9.731-11.266-19.871-19.715-21.728a35.894,35.894,0,0,0-13.858.169c-8.355,1.6-11.443,5.728-11.018,14.735.094,2.1.294,4.22.46,6.27a63.222,63.222,0,0,1,.317,12.684,22.269,22.269,0,0,1-1.568,5.764,105.51,105.51,0,0,1-7.53,13.806c-3.44,5.51-8.072,9.526-12.715,11.032-8.8,2.858-20.6.025-27.457-6.607a17.072,17.072,0,0,1-5.067-17.121,11.283,11.283,0,0,1,.554-1.52,9.9,9.9,0,0,0,.707-2.014,40.946,40.946,0,0,1,3.689-5.208c2.921-3.7,5.68-7.187,4.619-12.179a18.138,18.138,0,0,0-1.014-2.942c-.86-2.146-1.744-4.352-.707-5.666a77.88,77.88,0,0,1,6.917-7.271c4.537-4.413,9.24-8.995,10.571-13.288,1.355-4.3-1.414-8.585-2.592-10.394-1.273-1.966-2.734-3.991-4.266-6.161-1.191-1.664-2.428-3.388-3.595-5.1-.967-1.435-1.909-2.809-2.841-4.172-2.144-3.158-4.172-6.125-6.257-9.308-.825-1.266-1.65-2.629-2.463-3.93-1.355-2.2-2.745-4.45-4.149-6.367-3.064-4.2-6.516-5.92-10.3-5.136-3.747.784-7.812,3.75-11.336,6.451-.484.362-.954.724-1.426,1.1-6.575,5.051-14.047,10.767-16.014,17.121-1.662,5.413,1.413,7.933,4.666,10.6.354.289.707.578,1.049.88a41.244,41.244,0,0,1,5.161,5.3,63.812,63.812,0,0,1,4.985,7.332c1.1,1.784,2.133,3.5,3.17,4.883,3.571,4.787,8.2,6.9,12.668,8.959,4.4,2,8.921,4.051,12.351,8.645,0,.169.011.326.011.494a4.642,4.642,0,0,1-.094,1.411c-4.077,4.509-9.132,5.63-15.46,3.472a37.127,37.127,0,0,1-5.869-2.845c-4.525-2.509-9.2-5.088-14.588-3.413-3.877,1.194-6.564,3.991-9.169,6.692-2.569,2.677-5.22,5.438-9.062,6.812a31.024,31.024,0,0,1-7.836,1.279c-8.225.638-12.2,1.6-15.579,5.992a111.664,111.664,0,0,0-11.631,20.269,25.334,25.334,0,0,0-1.261,3.883c-1.437,7.379,2.994,13.142,7,17.362.967,1,2.038,1.941,3.064,2.834.92.807,1.874,1.64,2.757,2.52a39.517,39.517,0,0,1,4.608,6.125c.718,1.073,1.425,2.171,2.191,3.219,5.527,7.537,7.188,14.108,5.408,21.318-1.3,5.173-4.242,11.72-11.017,13.505a58.238,58.238,0,0,1-8,1.3,75.38,75.38,0,0,0-8.026,1.267c-2.333.542-4.536,1.242-6.669,1.941a50.788,50.788,0,0,1-8.709,2.231c-5.1.7-9.627-.4-14.011-1.424-3.865-.928-7.542-1.8-11.16-1.3v.168c3.606-.506,7.258.362,11.125,1.278,4.395,1.05,8.932,2.122,14.07,1.436a50.8,50.8,0,0,0,8.732-2.243c2.121-.688,4.337-1.387,6.669-1.929a74.72,74.72,0,0,1,7.99-1.254,58.5,58.5,0,0,0,8.026-1.314c5.421-1.436,9.274-6.138,11.125-13.614,1.8-7.271.129-13.878-5.422-21.474-.754-1.037-1.472-2.135-2.179-3.2a38.818,38.818,0,0,0-4.655-6.138c-.871-.9-1.826-1.736-2.745-2.532-1.026-.9-2.086-1.832-3.052-2.845-3.983-4.172-8.39-9.9-6.953-17.219A23.564,23.564,0,0,1,43.979,218a110.735,110.735,0,0,1,11.6-20.221c3.335-4.341,7.307-5.318,15.474-5.956a30.014,30.014,0,0,0,7.883-1.29c3.877-1.363,6.54-4.149,9.122-6.824,2.7-2.823,5.255-5.487,9.085-6.656,5.338-1.652,9.993.916,14.483,3.4a38.943,38.943,0,0,0,5.88,2.857c6.41,2.183,11.525,1.037,15.661-3.52l.012-.037a4.464,4.464,0,0,0,.082-1.483v-.542l-.023-.025c-3.442-4.63-8-6.715-12.409-8.729-4.455-2.026-9.074-4.147-12.609-8.9-1.026-1.387-2.074-3.087-3.17-4.883a64.544,64.544,0,0,0-5-7.343,42.341,42.341,0,0,0-5.173-5.33c-.354-.3-.707-.579-1.049-.868-3.217-2.641-6.258-5.136-4.619-10.429,1.956-6.307,9.392-12,15.943-17.038.484-.362.967-.736,1.438-1.11,3.5-2.7,7.554-5.643,11.266-6.414s7.129.928,10.158,5.077c1.4,1.9,2.78,4.171,4.137,6.354.8,1.3,1.626,2.652,2.463,3.931,2.073,3.183,4.112,6.161,6.257,9.319.932,1.351,1.874,2.75,2.851,4.172,1.155,1.713,2.381,3.437,3.583,5.1,1.544,2.158,3,4.2,4.266,6.15,1.167,1.808,3.9,6.028,2.581,10.26-1.332,4.268-6.021,8.8-10.547,13.215a79.41,79.41,0,0,0-6.929,7.283c-1.085,1.4-.189,3.653.706,5.835a18.221,18.221,0,0,1,.991,2.906c1.049,4.919-1.7,8.38-4.6,12.046a41.526,41.526,0,0,0-3.7,5.245l-.012.036a9.916,9.916,0,0,1-.707,1.989,12.258,12.258,0,0,0-.554,1.532,17.383,17.383,0,0,0,5.126,17.291c6.882,6.667,18.749,9.5,27.611,6.643,4.666-1.531,9.333-5.57,12.774-11.092a104.39,104.39,0,0,0,7.554-13.842,22.55,22.55,0,0,0,1.578-5.8,64.356,64.356,0,0,0-.307-12.721c-.188-2.05-.376-4.172-.471-6.257-.212-4.558.471-7.754,2.144-10.021,1.709-2.278,4.478-3.737,8.744-4.545a35.359,35.359,0,0,1,13.8-.169c8.4,1.832,17.547,11.925,19.585,21.595a20.174,20.174,0,0,1-.448,8.321,98.265,98.265,0,0,1-4.254,13.275c-.566,1.554-1.155,3.146-1.709,4.714-.13.349-.247.7-.378,1.049-.27.82-.577,1.663-.883,2.5a76.011,76.011,0,0,1-4.09,8.959c-.423.8-.942,1.592-1.437,2.376a19.927,19.927,0,0,0-2.24,4.16c-.223.651-.424,1.29-.624,1.893a20.551,20.551,0,0,1-2.475,5.728,44.693,44.693,0,0,1-5.232,6.077,23.469,23.469,0,0,0-2.675,3.411,24.454,24.454,0,0,1-2.285,3.026c-1.073,1.17-2.275,2.279-3.429,3.329-1.238,1.145-2.51,2.315-3.665,3.593-.707.807-1.414,1.652-2.074,2.484-.589.735-1.2,1.5-1.838,2.219-.343.385-.731.759-1.108,1.109a8.678,8.678,0,0,0-1.862,2.146,24.476,24.476,0,0,0-1.545,3.425,21.6,21.6,0,0,1-2.085,4.352c-3.088,4.557-8.437,7.38-16.369,8.658-3.487.567-7.317.832-11.029,1.085-6.117.421-11.891.807-16,2.46a32.772,32.772,0,0,0-6.669,3.991c-2.358,1.688-4.584,3.281-6.824,3.714-4.348.856-7.188-2.725-9.711-5.9a27.1,27.1,0,0,0-2.969-3.365,29.137,29.137,0,0,1-2.263-2.29,18.24,18.24,0,0,0-4.325-3.739,62.19,62.19,0,0,0-6.918-3.255c-.507-.2-1-.422-1.508-.627-6.669-2.858-10.512-6.415-13.21-12.286-1.733-3.739-2.393-7.609-2.216-12.938.165-5.257-4.349-9.079-7.978-12.154l-.13-.1c-.766-.663-1.578-1.314-2.439-1.989-3.877-3.087-7.9-6.282-9.263-10.973a11.077,11.077,0,0,1-.141-4.787A19.212,19.212,0,0,1,76.09,205.328c2.734-.59,5.232-.891,7.625-1.205,2.275-.29,4.431-.579,6.5-1.049,1.191-.265,2.64-.7,3.924-1.085.613-.193,1.2-.374,1.745-.519,3.252-.928,5.786-.747,7.753.531,3.677,2.376,4.915,8.3,6.152,15.76a33.8,33.8,0,0,0,1.343,4.907c1.05,3.231,2.145,6.572,1.32,9.695a23.382,23.382,0,0,1-2.993,5.933c-2.746,4.388-5.35,8.537-.094,12.925,1.249,1.049,2.533,2.026,3.782,2.955,4.832,3.641,9.393,7.077,10.642,13.974,1.131,6.15,5.008,9.984,11.548,11.383,13.187,2.857,23.568,3.123,30.8.807A17.258,17.258,0,0,0,177.659,268.7a102.619,102.619,0,0,1,8.415-19.979,39.676,39.676,0,0,1,4.7-7.2,41.71,41.71,0,0,1,4.715-4.462c1.284-1.109,2.616-2.242,3.818-3.484.848-.893,1.732-1.8,2.58-2.652,2.311-2.34,4.7-4.775,6.847-7.344,3.807-4.57,6.682-10.465,8.791-18.025l.212-.748c1.3-4.557,2.888-10.237.884-15.7a19.134,19.134,0,0,0-15.956-12.4c-5.539-.53-8.709,1.917-9.628,7.5a29.557,29.557,0,0,0-.011,7.765c.059.772.117,1.5.164,2.219.071,1,.142,1.977.224,2.941a52.74,52.74,0,0,1,.247,7.645c-.554,8.15-2.97,11.213-7.53,16.35-4.619,5.184-9.958,10.925-14.919,13.288a36.29,36.29,0,0,1-21.318,3.039c-16.876-2.99-26.609-11.455-28.966-25.189-.247-1.506-.39-2.893-.519-4.34-.177-1.7-.341-3.437-.731-5.631-.6-3.4-2.958-7.077-6.481-10.128-3.487-2.99-7.506-4.883-11.053-5.172-4.1-.326-7.223,2.11-9.733,4.087l-.366.289a31.268,31.268,0,0,1-8.462,5.125,51.477,51.477,0,0,1-8.131,1.88,64.234,64.234,0,0,0-6.316,1.327c-10.088,2.953-14.908,14.637-16.522,19.52l-.117.4a14.821,14.821,0,0,0-.967,8.007c.977,4.726,4.713,8.693,7.671,11.189,6.706,5.692,10.842,13.842,13.976,21.089a22.8,22.8,0,0,1,1.3,4.908,22.958,22.958,0,0,0,1.39,5.149,24.533,24.533,0,0,0,5.9,8.633,32.108,32.108,0,0,0,7.295,4.461,42.479,42.479,0,0,1,5.716,3.231c3.571,2.532,7.07,5.909,5.892,11.66-.578,2.869-3.194,5.655-5.528,8.1-.6.64-1.155,1.242-1.685,1.834-3.288,3.689-5.361,6.173-6.6,10.308a30.108,30.108,0,0,0-.153,12.577c.672,3.2,1.5,6.27,2.334,9.224h.165c-.837-2.967-1.662-6.041-2.346-9.26A30.124,30.124,0,0,1,87,318.247Z" transform="translate(0.25 0.25)" fill="none" stroke="rgba(31,25,25,0.06)" stroke-miterlimit="10" stroke-width="0.5"/>
</svg>
